<?xml version="1.0" encoding="UTF-8" standalone="no"?><svg xmlns="http://www.w3.org/2000/svg" xmlns:xlink="http://www.w3.org/1999/xlink" contentStyleType="text/css" height="4660.6px" preserveAspectRatio="none" style="width:1485px;height:4660px;background:#FFFFFF;" version="1.1" viewBox="0 0 1485 4660" width="1485.4px" zoomAndPan="magnify"><defs/><g><rect fill="#FF4500" height="54.7682" rx="17.5" ry="17.5" style="stroke:#181818;stroke-width:2.0999999999999996;" width="86.8" x="14" y="2301.9268"/><text fill="#000000" font-family="sans-serif" font-size="19.6" lengthAdjust="spacing" textLength="58.8" x="28" y="2338.3883">算法题</text><rect fill="#FFFF00" height="54.7682" rx="17.5" ry="17.5" style="stroke:#181818;stroke-width:2.0999999999999996;" width="67.2" x="170.8" y="2301.9268"/><text fill="#000000" font-family="sans-serif" font-size="19.6" lengthAdjust="spacing" textLength="39.2" x="184.8" y="2338.3883">算法</text><rect fill="#FFC0CB" height="54.7682" rx="17.5" ry="17.5" style="stroke:#181818;stroke-width:2.0999999999999996;" width="106.4" x="308" y="563.7953"/><text fill="#000000" font-family="sans-serif" font-size="19.6" lengthAdjust="spacing" textLength="78.4" x="322" y="600.2568">基本思想</text><rect fill="#00FA9A" height="54.7682" rx="17.5" ry="17.5" style="stroke:#181818;stroke-width:2.0999999999999996;" width="173.6" x="484.4" y="28"/><text fill="#000000" font-family="sans-serif" font-size="19.6" lengthAdjust="spacing" textLength="145.6" x="498.4" y="64.4615">递归 / Recursion</text><text fill="#000000" font-family="sans-serif" font-size="19.6" lengthAdjust="spacing" textLength="78.4" x="732.2" y="49.6774">深度优先</text><path d="M658,55.3841 L672,55.3841 C693,55.3841 693,40.6 714,40.6 L728,40.6 " fill="none" style="stroke:#181818;stroke-width:1.3999999999999997;"/><text fill="#000000" font-family="sans-serif" font-size="19.6" lengthAdjust="spacing" textLength="117.6" x="732.2" y="79.2456">判断结束条件</text><path d="M658,55.3841 L672,55.3841 C693,55.3841 693,70.1682 714,70.1682 L728,70.1682 " fill="none" style="stroke:#181818;stroke-width:1.3999999999999997;"/><path d="M414.4,591.1794 L428.4,591.1794 C449.4,591.1794 449.4,55.3841 470.4,55.3841 L484.4,55.3841 " fill="none" style="stroke:#181818;stroke-width:1.3999999999999997;"/><rect fill="#00FA9A" height="54.7682" rx="17.5" ry="17.5" style="stroke:#181818;stroke-width:2.0999999999999996;" width="67.2" x="484.4" y="113.7363"/><text fill="#000000" font-family="sans-serif" font-size="19.6" lengthAdjust="spacing" textLength="39.2" x="498.4" y="150.1979">回溯</text><text fill="#000000" font-family="sans-serif" font-size="19.6" lengthAdjust="spacing" textLength="78.4" x="625.8" y="120.6297">前置操作</text><path d="M551.6,141.1204 L565.6,141.1204 C586.6,141.1204 586.6,111.5522 607.6,111.5522 L621.6,111.5522 " fill="none" style="stroke:#181818;stroke-width:1.3999999999999997;"/><text fill="#000000" font-family="sans-serif" font-size="19.6" lengthAdjust="spacing" textLength="196" x="625.8" y="150.1979">递归（在递归中循环）</text><path d="M551.6,141.1204 L565.6,141.1204 C586.6,141.1204 586.6,141.1204 607.6,141.1204 L621.6,141.1204 " fill="none" style="stroke:#181818;stroke-width:1.3999999999999997;"/><text fill="#000000" font-family="sans-serif" font-size="19.6" lengthAdjust="spacing" textLength="235.2" x="625.8" y="179.766">后置操作（撤销前置操作）</text><path d="M551.6,141.1204 L565.6,141.1204 C586.6,141.1204 586.6,170.6886 607.6,170.6886 L621.6,170.6886 " fill="none" style="stroke:#181818;stroke-width:1.3999999999999997;"/><path d="M414.4,591.1794 L428.4,591.1794 C449.4,591.1794 449.4,141.1204 470.4,141.1204 L484.4,141.1204 " fill="none" style="stroke:#181818;stroke-width:1.3999999999999997;"/><rect fill="#00FA9A" height="54.7682" rx="17.5" ry="17.5" style="stroke:#181818;stroke-width:2.0999999999999996;" width="67.2" x="484.4" y="196.5045"/><text fill="#000000" font-family="sans-serif" font-size="19.6" lengthAdjust="spacing" textLength="39.2" x="498.4" y="232.966">贪心</text><text fill="#000000" font-family="sans-serif" font-size="19.6" lengthAdjust="spacing" textLength="176.4" x="625.8" y="232.966">及时舍弃，只要第一</text><path d="M551.6,223.8886 L565.6,223.8886 C586.6,223.8886 586.6,223.8886 607.6,223.8886 L621.6,223.8886 " fill="none" style="stroke:#181818;stroke-width:1.3999999999999997;"/><path d="M414.4,591.1794 L428.4,591.1794 C449.4,591.1794 449.4,223.8886 470.4,223.8886 L484.4,223.8886 " fill="none" style="stroke:#181818;stroke-width:1.3999999999999997;"/><rect fill="#00FA9A" height="54.7682" rx="17.5" ry="17.5" style="stroke:#181818;stroke-width:2.0999999999999996;" width="67.2" x="484.4" y="279.2727"/><text fill="#000000" font-family="sans-serif" font-size="19.6" lengthAdjust="spacing" textLength="39.2" x="498.4" y="315.7342">分治</text><path d="M414.4,591.1794 L428.4,591.1794 C449.4,591.1794 449.4,306.6567 470.4,306.6567 L484.4,306.6567 " fill="none" style="stroke:#181818;stroke-width:1.3999999999999997;"/><rect fill="#00FA9A" height="54.7682" rx="17.5" ry="17.5" style="stroke:#181818;stroke-width:2.0999999999999996;" width="218.4" x="484.4" y="362.0408"/><text fill="#000000" font-family="sans-serif" font-size="19.6" lengthAdjust="spacing" textLength="190.4" x="498.4" y="398.5023">双指针 / Two Pointers</text><path d="M414.4,591.1794 L428.4,591.1794 C449.4,591.1794 449.4,389.4249 470.4,389.4249 L484.4,389.4249 " fill="none" style="stroke:#181818;stroke-width:1.3999999999999997;"/><rect fill="#00FA9A" height="54.7682" rx="17.5" ry="17.5" style="stroke:#181818;stroke-width:2.0999999999999996;" width="305.2" x="484.4" y="444.809"/><text fill="#000000" font-family="sans-serif" font-size="19.6" lengthAdjust="spacing" textLength="277.2" x="498.4" y="481.2705">快慢指针 / Fast &amp; Slow Pointers</text><path d="M414.4,591.1794 L428.4,591.1794 C449.4,591.1794 449.4,472.1931 470.4,472.1931 L484.4,472.1931 " fill="none" style="stroke:#181818;stroke-width:1.3999999999999997;"/><rect fill="#00FA9A" height="54.7682" rx="17.5" ry="17.5" style="stroke:#181818;stroke-width:2.0999999999999996;" width="329" x="484.4" y="527.5771"/><text fill="#000000" font-family="sans-serif" font-size="19.6" lengthAdjust="spacing" textLength="301" x="498.4" y="564.0387">深度优先搜索 / Depth First Search</text><text fill="#000000" font-family="sans-serif" font-size="19.6" lengthAdjust="spacing" textLength="39.2" x="887.6" y="549.2546">递归</text><path d="M813.4,554.9612 L827.4,554.9612 C848.4,554.9612 848.4,540.1771 869.4,540.1771 L883.4,540.1771 " fill="none" style="stroke:#181818;stroke-width:1.3999999999999997;"/><text fill="#000000" font-family="sans-serif" font-size="19.6" lengthAdjust="spacing" textLength="78.4" x="887.6" y="578.8228">未知深度</text><path d="M813.4,554.9612 L827.4,554.9612 C848.4,554.9612 848.4,569.7453 869.4,569.7453 L883.4,569.7453 " fill="none" style="stroke:#181818;stroke-width:1.3999999999999997;"/><path d="M414.4,591.1794 L428.4,591.1794 C449.4,591.1794 449.4,554.9612 470.4,554.9612 L484.4,554.9612 " fill="none" style="stroke:#181818;stroke-width:1.3999999999999997;"/><rect fill="#00FA9A" height="54.7682" rx="17.5" ry="17.5" style="stroke:#181818;stroke-width:2.0999999999999996;" width="334.6" x="484.4" y="610.3453"/><text fill="#000000" font-family="sans-serif" font-size="19.6" lengthAdjust="spacing" textLength="306.6" x="498.4" y="646.8068">广度优先搜索 / Breath First Search</text><text fill="#000000" font-family="sans-serif" font-size="19.6" lengthAdjust="spacing" textLength="117.6" x="893.2" y="617.2387">数组（多维）</text><path d="M819,637.7294 L833,637.7294 C854,637.7294 854,608.1612 875,608.1612 L889,608.1612 " fill="none" style="stroke:#181818;stroke-width:1.3999999999999997;"/><text fill="#000000" font-family="sans-serif" font-size="19.6" lengthAdjust="spacing" textLength="78.4" x="893.2" y="646.8068">多层循环</text><path d="M819,637.7294 L833,637.7294 C854,637.7294 854,637.7294 875,637.7294 L889,637.7294 " fill="none" style="stroke:#181818;stroke-width:1.3999999999999997;"/><text fill="#000000" font-family="sans-serif" font-size="19.6" lengthAdjust="spacing" textLength="117.6" x="893.2" y="676.375">可能需要队列</text><path d="M819,637.7294 L833,637.7294 C854,637.7294 854,667.2976 875,667.2976 L889,667.2976 " fill="none" style="stroke:#181818;stroke-width:1.3999999999999997;"/><path d="M414.4,591.1794 L428.4,591.1794 C449.4,591.1794 449.4,637.7294 470.4,637.7294 L484.4,637.7294 " fill="none" style="stroke:#181818;stroke-width:1.3999999999999997;"/><rect fill="#F0F8FF" height="54.7682" rx="17.5" ry="17.5" style="stroke:#181818;stroke-width:2.0999999999999996;" width="86.8" x="484.4" y="693.1135"/><text fill="#000000" font-family="sans-serif" font-size="19.6" lengthAdjust="spacing" textLength="58.8" x="498.4" y="729.575">位运算</text><path d="M414.4,591.1794 L428.4,591.1794 C449.4,591.1794 449.4,720.4976 470.4,720.4976 L484.4,720.4976 " fill="none" style="stroke:#181818;stroke-width:1.3999999999999997;"/><rect fill="#F0F8FF" height="54.7682" rx="17.5" ry="17.5" style="stroke:#181818;stroke-width:2.0999999999999996;" width="67.2" x="484.4" y="775.8816"/><text fill="#000000" font-family="sans-serif" font-size="19.6" lengthAdjust="spacing" textLength="39.2" x="498.4" y="812.3432">穷举</text><path d="M414.4,591.1794 L428.4,591.1794 C449.4,591.1794 449.4,803.2657 470.4,803.2657 L484.4,803.2657 " fill="none" style="stroke:#181818;stroke-width:1.3999999999999997;"/><rect fill="#F0F8FF" height="54.7682" rx="17.5" ry="17.5" style="stroke:#181818;stroke-width:2.0999999999999996;" width="67.2" x="484.4" y="858.6498"/><text fill="#000000" font-family="sans-serif" font-size="19.6" lengthAdjust="spacing" textLength="39.2" x="498.4" y="895.1113">模拟</text><path d="M414.4,591.1794 L428.4,591.1794 C449.4,591.1794 449.4,886.0339 470.4,886.0339 L484.4,886.0339 " fill="none" style="stroke:#181818;stroke-width:1.3999999999999997;"/><rect fill="#00FA9A" height="54.7682" rx="17.5" ry="17.5" style="stroke:#181818;stroke-width:2.0999999999999996;" width="322" x="484.4" y="941.418"/><text fill="#000000" font-family="sans-serif" font-size="19.6" lengthAdjust="spacing" textLength="294" x="498.4" y="977.8795">动态规划 / Dynamic Programming</text><rect fill="#F8F8FF" height="54.7682" rx="17.5" ry="17.5" style="stroke:#181818;stroke-width:2.0999999999999996;" width="67.2" x="876.4" y="854.1976"/><text fill="#000000" font-family="sans-serif" font-size="19.6" lengthAdjust="spacing" textLength="39.2" x="890.4" y="890.6591">套路</text><text fill="#000000" font-family="sans-serif" font-size="19.6" lengthAdjust="spacing" textLength="134.4" x="1017.8" y="875.875">数组 / 二维数组</text><path d="M943.6,881.5816 L957.6,881.5816 C978.6,881.5816 978.6,866.7976 999.6,866.7976 L1013.6,866.7976 " fill="none" style="stroke:#181818;stroke-width:1.3999999999999997;"/><text fill="#000000" font-family="sans-serif" font-size="19.6" lengthAdjust="spacing" textLength="450.8" x="1017.8" y="905.4432">数组类型一般是整型或者布尔，用来存储长度或状态</text><path d="M943.6,881.5816 L957.6,881.5816 C978.6,881.5816 978.6,896.3657 999.6,896.3657 L1013.6,896.3657 " fill="none" style="stroke:#181818;stroke-width:1.3999999999999997;"/><path d="M806.4,968.8021 L820.4,968.8021 C841.4,968.8021 841.4,881.5816 862.4,881.5816 L876.4,881.5816 " fill="none" style="stroke:#181818;stroke-width:1.3999999999999997;"/><rect fill="#F8F8FF" height="54.7682" rx="17.5" ry="17.5" style="stroke:#181818;stroke-width:2.0999999999999996;" width="67.2" x="876.4" y="936.9657"/><text fill="#000000" font-family="sans-serif" font-size="19.6" lengthAdjust="spacing" textLength="39.2" x="890.4" y="973.4272">题型</text><text fill="#000000" font-family="sans-serif" font-size="19.6" lengthAdjust="spacing" textLength="78.4" x="1017.8" y="943.8591">背包问题</text><path d="M943.6,964.3498 L957.6,964.3498 C978.6,964.3498 978.6,934.7816 999.6,934.7816 L1013.6,934.7816 " fill="none" style="stroke:#181818;stroke-width:1.3999999999999997;"/><text fill="#000000" font-family="sans-serif" font-size="19.6" lengthAdjust="spacing" textLength="98" x="1017.8" y="973.4272">最长子序列</text><path d="M943.6,964.3498 L957.6,964.3498 C978.6,964.3498 978.6,964.3498 999.6,964.3498 L1013.6,964.3498 " fill="none" style="stroke:#181818;stroke-width:1.3999999999999997;"/><text fill="#000000" font-family="sans-serif" font-size="19.6" lengthAdjust="spacing" textLength="78.4" x="1017.8" y="1002.9954">计数问题</text><path d="M943.6,964.3498 L957.6,964.3498 C978.6,964.3498 978.6,993.918 999.6,993.918 L1013.6,993.918 " fill="none" style="stroke:#181818;stroke-width:1.3999999999999997;"/><path d="M806.4,968.8021 L820.4,968.8021 C841.4,968.8021 841.4,964.3498 862.4,964.3498 L876.4,964.3498 " fill="none" style="stroke:#181818;stroke-width:1.3999999999999997;"/><rect fill="#F8F8FF" height="54.7682" rx="17.5" ry="17.5" style="stroke:#181818;stroke-width:2.0999999999999996;" width="67.2" x="876.4" y="1025.6702"/><text fill="#000000" font-family="sans-serif" font-size="19.6" lengthAdjust="spacing" textLength="39.2" x="890.4" y="1062.1317">分类</text><text fill="#000000" font-family="sans-serif" font-size="19.6" lengthAdjust="spacing" textLength="89.6" x="1017.8" y="1032.5636">Recursion</text><path d="M943.6,1053.0543 L957.6,1053.0543 C978.6,1053.0543 978.6,1023.4861 999.6,1023.4861 L1013.6,1023.4861 " fill="none" style="stroke:#181818;stroke-width:1.3999999999999997;"/><text fill="#000000" font-family="sans-serif" font-size="19.6" lengthAdjust="spacing" textLength="95.2" x="1017.8" y="1062.1317">Top+Down</text><path d="M943.6,1053.0543 L957.6,1053.0543 C978.6,1053.0543 978.6,1053.0543 999.6,1053.0543 L1013.6,1053.0543 " fill="none" style="stroke:#181818;stroke-width:1.3999999999999997;"/><text fill="#000000" font-family="sans-serif" font-size="19.6" lengthAdjust="spacing" textLength="96.6" x="1017.8" y="1091.6999">Bottom+Up</text><path d="M943.6,1053.0543 L957.6,1053.0543 C978.6,1053.0543 978.6,1082.6225 999.6,1082.6225 L1013.6,1082.6225 " fill="none" style="stroke:#181818;stroke-width:1.3999999999999997;"/><path d="M806.4,968.8021 L820.4,968.8021 C841.4,968.8021 841.4,1053.0543 862.4,1053.0543 L876.4,1053.0543 " fill="none" style="stroke:#181818;stroke-width:1.3999999999999997;"/><path d="M414.4,591.1794 L428.4,591.1794 C449.4,591.1794 449.4,968.8021 470.4,968.8021 L484.4,968.8021 " fill="none" style="stroke:#181818;stroke-width:1.3999999999999997;"/><rect fill="#00FA9A" height="54.7682" rx="17.5" ry="17.5" style="stroke:#181818;stroke-width:2.0999999999999996;" width="256.2" x="484.4" y="1099.5906"/><text fill="#000000" font-family="sans-serif" font-size="19.6" lengthAdjust="spacing" textLength="228.2" x="498.4" y="1136.0521">滑动窗口 / Sliding Window</text><text fill="#000000" font-family="sans-serif" font-size="19.6" lengthAdjust="spacing" textLength="78.4" x="814.8" y="1121.2681">两层循环</text><path d="M740.6,1126.9747 L754.6,1126.9747 C775.6,1126.9747 775.6,1112.1906 796.6,1112.1906 L810.6,1112.1906 " fill="none" style="stroke:#181818;stroke-width:1.3999999999999997;"/><text fill="#000000" font-family="sans-serif" font-size="19.6" lengthAdjust="spacing" textLength="494.2" x="814.8" y="1150.8362">右指针遍历滑动，左指针在二层循环（while）中跟随滑动</text><path d="M740.6,1126.9747 L754.6,1126.9747 C775.6,1126.9747 775.6,1141.7588 796.6,1141.7588 L810.6,1141.7588 " fill="none" style="stroke:#181818;stroke-width:1.3999999999999997;"/><path d="M414.4,591.1794 L428.4,591.1794 C449.4,591.1794 449.4,1126.9747 470.4,1126.9747 L484.4,1126.9747 " fill="none" style="stroke:#181818;stroke-width:1.3999999999999997;"/><path d="M238,2329.3108 L252,2329.3108 C273,2329.3108 273,591.1794 294,591.1794 L308,591.1794 " fill="none" style="stroke:#181818;stroke-width:1.3999999999999997;"/><rect fill="#FFC0CB" height="54.7682" rx="17.5" ry="17.5" style="stroke:#181818;stroke-width:2.0999999999999996;" width="106.4" x="308" y="1389.2792"/><text fill="#000000" font-family="sans-serif" font-size="19.6" lengthAdjust="spacing" textLength="78.4" x="322" y="1425.7407">算法技巧</text><rect fill="#F0F8FF" height="54.7682" rx="17.5" ry="17.5" style="stroke:#181818;stroke-width:2.0999999999999996;" width="126" x="484.4" y="1182.3588"/><text fill="#000000" font-family="sans-serif" font-size="19.6" lengthAdjust="spacing" textLength="98" x="498.4" y="1218.8203">记忆化搜索</text><path d="M414.4,1416.6633 L428.4,1416.6633 C449.4,1416.6633 449.4,1209.7429 470.4,1209.7429 L484.4,1209.7429 " fill="none" style="stroke:#181818;stroke-width:1.3999999999999997;"/><rect fill="#F0F8FF" height="54.7682" rx="17.5" ry="17.5" style="stroke:#181818;stroke-width:2.0999999999999996;" width="86.8" x="484.4" y="1265.127"/><text fill="#000000" font-family="sans-serif" font-size="19.6" lengthAdjust="spacing" textLength="58.8" x="498.4" y="1301.5885">并查集</text><path d="M414.4,1416.6633 L428.4,1416.6633 C449.4,1416.6633 449.4,1292.511 470.4,1292.511 L484.4,1292.511 " fill="none" style="stroke:#181818;stroke-width:1.3999999999999997;"/><rect fill="#F0F8FF" height="54.7682" rx="17.5" ry="17.5" style="stroke:#181818;stroke-width:2.0999999999999996;" width="86.8" x="484.4" y="1347.8951"/><text fill="#000000" font-family="sans-serif" font-size="19.6" lengthAdjust="spacing" textLength="58.8" x="498.4" y="1384.3566">前缀和</text><path d="M414.4,1416.6633 L428.4,1416.6633 C449.4,1416.6633 449.4,1375.2792 470.4,1375.2792 L484.4,1375.2792 " fill="none" style="stroke:#181818;stroke-width:1.3999999999999997;"/><rect fill="#F0F8FF" height="54.7682" rx="17.5" ry="17.5" style="stroke:#181818;stroke-width:2.0999999999999996;" width="86.8" x="484.4" y="1430.6633"/><text fill="#000000" font-family="sans-serif" font-size="19.6" lengthAdjust="spacing" textLength="58.8" x="498.4" y="1467.1248">扫描线</text><path d="M414.4,1416.6633 L428.4,1416.6633 C449.4,1416.6633 449.4,1458.0474 470.4,1458.0474 L484.4,1458.0474 " fill="none" style="stroke:#181818;stroke-width:1.3999999999999997;"/><rect fill="#F0F8FF" height="54.7682" rx="17.5" ry="17.5" style="stroke:#181818;stroke-width:2.0999999999999996;" width="86.8" x="484.4" y="1513.4314"/><text fill="#000000" font-family="sans-serif" font-size="19.6" lengthAdjust="spacing" textLength="58.8" x="498.4" y="1549.893">多线程</text><path d="M414.4,1416.6633 L428.4,1416.6633 C449.4,1416.6633 449.4,1540.8155 470.4,1540.8155 L484.4,1540.8155 " fill="none" style="stroke:#181818;stroke-width:1.3999999999999997;"/><rect fill="#F0F8FF" height="54.7682" rx="17.5" ry="17.5" style="stroke:#181818;stroke-width:2.0999999999999996;" width="106.4" x="484.4" y="1596.1996"/><text fill="#000000" font-family="sans-serif" font-size="19.6" lengthAdjust="spacing" textLength="78.4" x="498.4" y="1632.6611">设计模式</text><path d="M414.4,1416.6633 L428.4,1416.6633 C449.4,1416.6633 449.4,1623.5837 470.4,1623.5837 L484.4,1623.5837 " fill="none" style="stroke:#181818;stroke-width:1.3999999999999997;"/><path d="M238,2329.3108 L252,2329.3108 C273,2329.3108 273,1416.6633 294,1416.6633 L308,1416.6633 " fill="none" style="stroke:#181818;stroke-width:1.3999999999999997;"/><rect fill="#FFC0CB" height="54.7682" rx="17.5" ry="17.5" style="stroke:#181818;stroke-width:2.0999999999999996;" width="67.2" x="308" y="2010.0404"/><text fill="#000000" font-family="sans-serif" font-size="19.6" lengthAdjust="spacing" textLength="39.2" x="322" y="2046.502">模式</text><rect fill="#00FA9A" height="54.7682" rx="17.5" ry="17.5" style="stroke:#181818;stroke-width:2.0999999999999996;" width="259" x="445.2" y="1678.9678"/><text fill="#000000" font-family="sans-serif" font-size="19.6" lengthAdjust="spacing" textLength="231" x="459.2" y="1715.4293">合并区间 / Merge Intervals</text><path d="M375.2,2037.4245 L389.2,2037.4245 C410.2,2037.4245 410.2,1706.3519 431.2,1706.3519 L445.2,1706.3519 " fill="none" style="stroke:#181818;stroke-width:1.3999999999999997;"/><rect fill="#F0F8FF" height="54.7682" rx="17.5" ry="17.5" style="stroke:#181818;stroke-width:2.0999999999999996;" width="182" x="445.2" y="1761.7359"/><text fill="#000000" font-family="sans-serif" font-size="19.6" lengthAdjust="spacing" textLength="154" x="459.2" y="1798.1975">双堆 / Two Heaps</text><path d="M375.2,2037.4245 L389.2,2037.4245 C410.2,2037.4245 410.2,1789.12 431.2,1789.12 L445.2,1789.12 " fill="none" style="stroke:#181818;stroke-width:1.3999999999999997;"/><rect fill="#F0F8FF" height="54.7682" rx="17.5" ry="17.5" style="stroke:#181818;stroke-width:2.0999999999999996;" width="155.4" x="445.2" y="1844.5041"/><text fill="#000000" font-family="sans-serif" font-size="19.6" lengthAdjust="spacing" textLength="127.4" x="459.2" y="1880.9656">子集 / Subsets</text><path d="M375.2,2037.4245 L389.2,2037.4245 C410.2,2037.4245 410.2,1871.8882 431.2,1871.8882 L445.2,1871.8882 " fill="none" style="stroke:#181818;stroke-width:1.3999999999999997;"/><rect fill="#00FA9A" height="54.7682" rx="17.5" ry="17.5" style="stroke:#181818;stroke-width:2.0999999999999996;" width="386.4" x="445.2" y="1927.2723"/><text fill="#000000" font-family="sans-serif" font-size="19.6" lengthAdjust="spacing" textLength="358.4" x="459.2" y="1963.7338">前 K 个 / K’ Elements / 堆 / PriorityQueue</text><path d="M375.2,2037.4245 L389.2,2037.4245 C410.2,2037.4245 410.2,1954.6563 431.2,1954.6563 L445.2,1954.6563 " fill="none" style="stroke:#181818;stroke-width:1.3999999999999997;"/><rect fill="#F0F8FF" height="54.7682" rx="17.5" ry="17.5" style="stroke:#181818;stroke-width:2.0999999999999996;" width="238" x="445.2" y="2010.0404"/><text fill="#000000" font-family="sans-serif" font-size="19.6" lengthAdjust="spacing" textLength="210" x="459.2" y="2046.502">多路归并 / K-way merge</text><path d="M375.2,2037.4245 L389.2,2037.4245 C410.2,2037.4245 410.2,2037.4245 431.2,2037.4245 L445.2,2037.4245 " fill="none" style="stroke:#181818;stroke-width:1.3999999999999997;"/><rect fill="#F0F8FF" height="54.7682" rx="17.5" ry="17.5" style="stroke:#181818;stroke-width:2.0999999999999996;" width="170.8" x="445.2" y="2092.8086"/><text fill="#000000" font-family="sans-serif" font-size="19.6" lengthAdjust="spacing" textLength="142.8" x="459.2" y="2129.2701">背包 / Knapsack</text><path d="M375.2,2037.4245 L389.2,2037.4245 C410.2,2037.4245 410.2,2120.1927 431.2,2120.1927 L445.2,2120.1927 " fill="none" style="stroke:#181818;stroke-width:1.3999999999999997;"/><rect fill="#F0F8FF" height="54.7682" rx="17.5" ry="17.5" style="stroke:#181818;stroke-width:2.0999999999999996;" width="86.8" x="445.2" y="2175.5768"/><text fill="#000000" font-family="sans-serif" font-size="19.6" lengthAdjust="spacing" textLength="58.8" x="459.2" y="2212.0383">子序列</text><path d="M375.2,2037.4245 L389.2,2037.4245 C410.2,2037.4245 410.2,2202.9608 431.2,2202.9608 L445.2,2202.9608 " fill="none" style="stroke:#181818;stroke-width:1.3999999999999997;"/><rect fill="#F0F8FF" height="54.7682" rx="17.5" ry="17.5" style="stroke:#181818;stroke-width:2.0999999999999996;" width="67.2" x="445.2" y="2258.3449"/><text fill="#000000" font-family="sans-serif" font-size="19.6" lengthAdjust="spacing" textLength="39.2" x="459.2" y="2294.8064">股票</text><path d="M375.2,2037.4245 L389.2,2037.4245 C410.2,2037.4245 410.2,2285.729 431.2,2285.729 L445.2,2285.729 " fill="none" style="stroke:#181818;stroke-width:1.3999999999999997;"/><rect fill="#F0F8FF" height="54.7682" rx="17.5" ry="17.5" style="stroke:#181818;stroke-width:2.0999999999999996;" width="106.4" x="445.2" y="2341.1131"/><text fill="#000000" font-family="sans-serif" font-size="19.6" lengthAdjust="spacing" textLength="78.4" x="459.2" y="2377.5746">打家劫舍</text><path d="M375.2,2037.4245 L389.2,2037.4245 C410.2,2037.4245 410.2,2368.4972 431.2,2368.4972 L445.2,2368.4972 " fill="none" style="stroke:#181818;stroke-width:1.3999999999999997;"/><path d="M238,2329.3108 L252,2329.3108 C273,2329.3108 273,2037.4245 294,2037.4245 L308,2037.4245 " fill="none" style="stroke:#181818;stroke-width:1.3999999999999997;"/><rect fill="#FFC0CB" height="54.7682" rx="17.5" ry="17.5" style="stroke:#181818;stroke-width:2.0999999999999996;" width="86.8" x="308" y="2630.8017"/><text fill="#000000" font-family="sans-serif" font-size="19.6" lengthAdjust="spacing" textLength="58.8" x="322" y="2667.2632">图算法</text><rect fill="#00FA9A" height="54.7682" rx="17.5" ry="17.5" style="stroke:#181818;stroke-width:2.0999999999999996;" width="126" x="464.8" y="2423.8812"/><text fill="#000000" font-family="sans-serif" font-size="19.6" lengthAdjust="spacing" textLength="98" x="478.8" y="2460.3428">最小生成树</text><path d="M394.8,2658.1857 L408.8,2658.1857 C429.8,2658.1857 429.8,2451.2653 450.8,2451.2653 L464.8,2451.2653 " fill="none" style="stroke:#181818;stroke-width:1.3999999999999997;"/><rect fill="#00FA9A" height="54.7682" rx="17.5" ry="17.5" style="stroke:#181818;stroke-width:2.0999999999999996;" width="106.4" x="464.8" y="2506.6494"/><text fill="#000000" font-family="sans-serif" font-size="19.6" lengthAdjust="spacing" textLength="78.4" x="478.8" y="2543.1109">最短路径</text><path d="M394.8,2658.1857 L408.8,2658.1857 C429.8,2658.1857 429.8,2534.0335 450.8,2534.0335 L464.8,2534.0335 " fill="none" style="stroke:#181818;stroke-width:1.3999999999999997;"/><rect fill="#F0F8FF" height="54.7682" rx="17.5" ry="17.5" style="stroke:#181818;stroke-width:2.0999999999999996;" width="267.4" x="464.8" y="2589.4176"/><text fill="#000000" font-family="sans-serif" font-size="19.6" lengthAdjust="spacing" textLength="239.4" x="478.8" y="2625.8791">拓扑排序 / Topological Sort</text><path d="M394.8,2658.1857 L408.8,2658.1857 C429.8,2658.1857 429.8,2616.8017 450.8,2616.8017 L464.8,2616.8017 " fill="none" style="stroke:#181818;stroke-width:1.3999999999999997;"/><rect fill="#F0F8FF" height="54.7682" rx="17.5" ry="17.5" style="stroke:#181818;stroke-width:2.0999999999999996;" width="106.4" x="464.8" y="2672.1857"/><text fill="#000000" font-family="sans-serif" font-size="19.6" lengthAdjust="spacing" textLength="78.4" x="478.8" y="2708.6473">关键路径</text><path d="M394.8,2658.1857 L408.8,2658.1857 C429.8,2658.1857 429.8,2699.5698 450.8,2699.5698 L464.8,2699.5698 " fill="none" style="stroke:#181818;stroke-width:1.3999999999999997;"/><rect fill="#F0F8FF" height="54.7682" rx="17.5" ry="17.5" style="stroke:#181818;stroke-width:2.0999999999999996;" width="106.4" x="464.8" y="2754.9539"/><text fill="#000000" font-family="sans-serif" font-size="19.6" lengthAdjust="spacing" textLength="78.4" x="478.8" y="2791.4154">邻接矩阵</text><path d="M394.8,2658.1857 L408.8,2658.1857 C429.8,2658.1857 429.8,2782.338 450.8,2782.338 L464.8,2782.338 " fill="none" style="stroke:#181818;stroke-width:1.3999999999999997;"/><rect fill="#F0F8FF" height="54.7682" rx="17.5" ry="17.5" style="stroke:#181818;stroke-width:2.0999999999999996;" width="86.8" x="464.8" y="2837.7221"/><text fill="#000000" font-family="sans-serif" font-size="19.6" lengthAdjust="spacing" textLength="58.8" x="478.8" y="2874.1836">邻接表</text><path d="M394.8,2658.1857 L408.8,2658.1857 C429.8,2658.1857 429.8,2865.1062 450.8,2865.1062 L464.8,2865.1062 " fill="none" style="stroke:#181818;stroke-width:1.3999999999999997;"/><path d="M238,2329.3108 L252,2329.3108 C273,2329.3108 273,2658.1857 294,2658.1857 L308,2658.1857 " fill="none" style="stroke:#181818;stroke-width:1.3999999999999997;"/><rect fill="#FFC0CB" height="54.7682" rx="17.5" ry="17.5" style="stroke:#181818;stroke-width:2.0999999999999996;" width="165.2" x="308" y="3044.6425"/><text fill="#000000" font-family="sans-serif" font-size="19.6" lengthAdjust="spacing" textLength="137.2" x="322" y="3081.104">字符串匹配算法</text><rect fill="#00FA9A" height="54.7682" rx="17.5" ry="17.5" style="stroke:#181818;stroke-width:2.0999999999999996;" width="183.4" x="543.2" y="2920.4902"/><text fill="#000000" font-family="sans-serif" font-size="19.6" lengthAdjust="spacing" textLength="155.4" x="557.2" y="2956.9518">Trie 算法 / 字典树</text><path d="M473.2,3072.0266 L487.2,3072.0266 C508.2,3072.0266 508.2,2947.8743 529.2,2947.8743 L543.2,2947.8743 " fill="none" style="stroke:#181818;stroke-width:1.3999999999999997;"/><rect fill="#F0F8FF" height="54.7682" rx="17.5" ry="17.5" style="stroke:#181818;stroke-width:2.0999999999999996;" width="193.2" x="543.2" y="3003.2584"/><text fill="#000000" font-family="sans-serif" font-size="19.6" lengthAdjust="spacing" textLength="165.2" x="557.2" y="3039.7199">BF 算法 / 暴力匹配</text><path d="M473.2,3072.0266 L487.2,3072.0266 C508.2,3072.0266 508.2,3030.6425 529.2,3030.6425 L543.2,3030.6425 " fill="none" style="stroke:#181818;stroke-width:1.3999999999999997;"/><rect fill="#F0F8FF" height="54.7682" rx="17.5" ry="17.5" style="stroke:#181818;stroke-width:2.0999999999999996;" width="100.8" x="543.2" y="3086.0266"/><text fill="#000000" font-family="sans-serif" font-size="19.6" lengthAdjust="spacing" textLength="72.8" x="557.2" y="3122.4881">BM 算法</text><path d="M473.2,3072.0266 L487.2,3072.0266 C508.2,3072.0266 508.2,3113.4106 529.2,3113.4106 L543.2,3113.4106 " fill="none" style="stroke:#181818;stroke-width:1.3999999999999997;"/><rect fill="#F0F8FF" height="54.7682" rx="17.5" ry="17.5" style="stroke:#181818;stroke-width:2.0999999999999996;" width="113.4" x="543.2" y="3168.7947"/><text fill="#000000" font-family="sans-serif" font-size="19.6" lengthAdjust="spacing" textLength="85.4" x="557.2" y="3205.2562">KMP 算法</text><path d="M473.2,3072.0266 L487.2,3072.0266 C508.2,3072.0266 508.2,3196.1788 529.2,3196.1788 L543.2,3196.1788 " fill="none" style="stroke:#181818;stroke-width:1.3999999999999997;"/><path d="M238,2329.3108 L252,2329.3108 C273,2329.3108 273,3072.0266 294,3072.0266 L308,3072.0266 " fill="none" style="stroke:#181818;stroke-width:1.3999999999999997;"/><rect fill="#FFC0CB" height="54.7682" rx="17.5" ry="17.5" style="stroke:#181818;stroke-width:2.0999999999999996;" width="159.6" x="308" y="3624.0196"/><text fill="#000000" font-family="sans-serif" font-size="19.6" lengthAdjust="spacing" textLength="131.6" x="322" y="3660.4812">排序算法 / Sort</text><rect fill="#ADD8E6" height="54.7682" rx="17.5" ry="17.5" style="stroke:#181818;stroke-width:2.0999999999999996;" width="86.8" x="537.6" y="3375.7151"/><text fill="#000000" font-family="sans-serif" font-size="19.6" lengthAdjust="spacing" textLength="58.8" x="551.6" y="3412.1767">O(n^2)</text><rect fill="#00FA9A" height="54.7682" rx="17.5" ry="17.5" style="stroke:#181818;stroke-width:2.0999999999999996;" width="106.4" x="694.4" y="3251.5629"/><text fill="#000000" font-family="sans-serif" font-size="19.6" lengthAdjust="spacing" textLength="78.4" x="708.4" y="3288.0244">冒泡排序</text><path d="M624.4,3403.0992 L638.4,3403.0992 C659.4,3403.0992 659.4,3278.947 680.4,3278.947 L694.4,3278.947 " fill="none" style="stroke:#181818;stroke-width:1.3999999999999997;"/><rect fill="#00FA9A" height="54.7682" rx="17.5" ry="17.5" style="stroke:#181818;stroke-width:2.0999999999999996;" width="106.4" x="694.4" y="3334.3311"/><text fill="#000000" font-family="sans-serif" font-size="19.6" lengthAdjust="spacing" textLength="78.4" x="708.4" y="3370.7926">选择排序</text><path d="M624.4,3403.0992 L638.4,3403.0992 C659.4,3403.0992 659.4,3361.7151 680.4,3361.7151 L694.4,3361.7151 " fill="none" style="stroke:#181818;stroke-width:1.3999999999999997;"/><rect fill="#00FA9A" height="54.7682" rx="17.5" ry="17.5" style="stroke:#181818;stroke-width:2.0999999999999996;" width="106.4" x="694.4" y="3417.0992"/><text fill="#000000" font-family="sans-serif" font-size="19.6" lengthAdjust="spacing" textLength="78.4" x="708.4" y="3453.5607">插入排序</text><path d="M624.4,3403.0992 L638.4,3403.0992 C659.4,3403.0992 659.4,3444.4833 680.4,3444.4833 L694.4,3444.4833 " fill="none" style="stroke:#181818;stroke-width:1.3999999999999997;"/><rect fill="#F0F8FF" height="54.7682" rx="17.5" ry="17.5" style="stroke:#181818;stroke-width:2.0999999999999996;" width="106.4" x="694.4" y="3499.8674"/><text fill="#000000" font-family="sans-serif" font-size="19.6" lengthAdjust="spacing" textLength="78.4" x="708.4" y="3536.3289">希尔排序</text><path d="M624.4,3403.0992 L638.4,3403.0992 C659.4,3403.0992 659.4,3527.2515 680.4,3527.2515 L694.4,3527.2515 " fill="none" style="stroke:#181818;stroke-width:1.3999999999999997;"/><path d="M467.6,3651.4037 L481.6,3651.4037 C502.6,3651.4037 502.6,3403.0992 523.6,3403.0992 L537.6,3403.0992 " fill="none" style="stroke:#181818;stroke-width:1.3999999999999997;"/><rect fill="#ADD8E6" height="54.7682" rx="17.5" ry="17.5" style="stroke:#181818;stroke-width:2.0999999999999996;" width="117.6" x="537.6" y="3665.4037"/><text fill="#000000" font-family="sans-serif" font-size="19.6" lengthAdjust="spacing" textLength="89.6" x="551.6" y="3701.8652">O(n log n)</text><rect fill="#00FA9A" height="54.7682" rx="17.5" ry="17.5" style="stroke:#181818;stroke-width:2.0999999999999996;" width="106.4" x="725.2" y="3582.6355"/><text fill="#000000" font-family="sans-serif" font-size="19.6" lengthAdjust="spacing" textLength="78.4" x="739.2" y="3619.0971">归并排序</text><path d="M655.2,3692.7878 L669.2,3692.7878 C690.2,3692.7878 690.2,3610.0196 711.2,3610.0196 L725.2,3610.0196 " fill="none" style="stroke:#181818;stroke-width:1.3999999999999997;"/><rect fill="#00FA9A" height="54.7682" rx="17.5" ry="17.5" style="stroke:#181818;stroke-width:2.0999999999999996;" width="86.8" x="725.2" y="3665.4037"/><text fill="#000000" font-family="sans-serif" font-size="19.6" lengthAdjust="spacing" textLength="58.8" x="739.2" y="3701.8652">堆排序</text><path d="M655.2,3692.7878 L669.2,3692.7878 C690.2,3692.7878 690.2,3692.7878 711.2,3692.7878 L725.2,3692.7878 " fill="none" style="stroke:#181818;stroke-width:1.3999999999999997;"/><rect fill="#F0F8FF" height="54.7682" rx="17.5" ry="17.5" style="stroke:#181818;stroke-width:2.0999999999999996;" width="106.4" x="725.2" y="3748.1719"/><text fill="#000000" font-family="sans-serif" font-size="19.6" lengthAdjust="spacing" textLength="78.4" x="739.2" y="3784.6334">快速排序</text><path d="M655.2,3692.7878 L669.2,3692.7878 C690.2,3692.7878 690.2,3775.556 711.2,3775.556 L725.2,3775.556 " fill="none" style="stroke:#181818;stroke-width:1.3999999999999997;"/><path d="M467.6,3651.4037 L481.6,3651.4037 C502.6,3651.4037 502.6,3692.7878 523.6,3692.7878 L537.6,3692.7878 " fill="none" style="stroke:#181818;stroke-width:1.3999999999999997;"/><rect fill="#ADD8E6" height="54.7682" rx="17.5" ry="17.5" style="stroke:#181818;stroke-width:2.0999999999999996;" width="100.8" x="537.6" y="3913.7082"/><text fill="#000000" font-family="sans-serif" font-size="19.6" lengthAdjust="spacing" textLength="72.8" x="551.6" y="3950.1697">O(n + k)</text><rect fill="#F0F8FF" height="54.7682" rx="17.5" ry="17.5" style="stroke:#181818;stroke-width:2.0999999999999996;" width="86.8" x="708.4" y="3830.94"/><text fill="#000000" font-family="sans-serif" font-size="19.6" lengthAdjust="spacing" textLength="58.8" x="722.4" y="3867.4016">桶排序</text><path d="M638.4,3941.0923 L652.4,3941.0923 C673.4,3941.0923 673.4,3858.3241 694.4,3858.3241 L708.4,3858.3241 " fill="none" style="stroke:#181818;stroke-width:1.3999999999999997;"/><rect fill="#F0F8FF" height="54.7682" rx="17.5" ry="17.5" style="stroke:#181818;stroke-width:2.0999999999999996;" width="106.4" x="708.4" y="3913.7082"/><text fill="#000000" font-family="sans-serif" font-size="19.6" lengthAdjust="spacing" textLength="78.4" x="722.4" y="3950.1697">基数排序</text><path d="M638.4,3941.0923 L652.4,3941.0923 C673.4,3941.0923 673.4,3941.0923 694.4,3941.0923 L708.4,3941.0923 " fill="none" style="stroke:#181818;stroke-width:1.3999999999999997;"/><rect fill="#F0F8FF" height="54.7682" rx="17.5" ry="17.5" style="stroke:#181818;stroke-width:2.0999999999999996;" width="106.4" x="708.4" y="3996.4764"/><text fill="#000000" font-family="sans-serif" font-size="19.6" lengthAdjust="spacing" textLength="78.4" x="722.4" y="4032.9379">计数排序</text><path d="M638.4,3941.0923 L652.4,3941.0923 C673.4,3941.0923 673.4,4023.8604 694.4,4023.8604 L708.4,4023.8604 " fill="none" style="stroke:#181818;stroke-width:1.3999999999999997;"/><path d="M467.6,3651.4037 L481.6,3651.4037 C502.6,3651.4037 502.6,3941.0923 523.6,3941.0923 L537.6,3941.0923 " fill="none" style="stroke:#181818;stroke-width:1.3999999999999997;"/><path d="M238,2329.3108 L252,2329.3108 C273,2329.3108 273,3651.4037 294,3651.4037 L308,3651.4037 " fill="none" style="stroke:#181818;stroke-width:1.3999999999999997;"/><rect fill="#FFC0CB" height="54.7682" rx="17.5" ry="17.5" style="stroke:#181818;stroke-width:2.0999999999999996;" width="186.2" x="308" y="4327.549"/><text fill="#000000" font-family="sans-serif" font-size="19.6" lengthAdjust="spacing" textLength="158.2" x="322" y="4364.0105">查找算法 / Search</text><rect fill="#ADD8E6" height="54.7682" rx="17.5" ry="17.5" style="stroke:#181818;stroke-width:2.0999999999999996;" width="112" x="564.2" y="4244.7809"/><text fill="#000000" font-family="sans-serif" font-size="19.6" lengthAdjust="spacing" textLength="84" x="578.2" y="4281.2424">O(log 2n)</text><rect fill="#00FA9A" height="54.7682" rx="17.5" ry="17.5" style="stroke:#181818;stroke-width:2.0999999999999996;" width="247.8" x="746.2" y="4079.2445"/><text fill="#000000" font-family="sans-serif" font-size="19.6" lengthAdjust="spacing" textLength="219.8" x="760.2" y="4115.7061">二分查找 / Binary Search</text><path d="M676.2,4272.1649 L690.2,4272.1649 C711.2,4272.1649 711.2,4106.6286 732.2,4106.6286 L746.2,4106.6286 " fill="none" style="stroke:#181818;stroke-width:1.3999999999999997;"/><rect fill="#F0F8FF" height="54.7682" rx="17.5" ry="17.5" style="stroke:#181818;stroke-width:2.0999999999999996;" width="126" x="746.2" y="4162.0127"/><text fill="#000000" font-family="sans-serif" font-size="19.6" lengthAdjust="spacing" textLength="98" x="760.2" y="4198.4742">二叉查找树</text><path d="M676.2,4272.1649 L690.2,4272.1649 C711.2,4272.1649 711.2,4189.3968 732.2,4189.3968 L746.2,4189.3968 " fill="none" style="stroke:#181818;stroke-width:1.3999999999999997;"/><rect fill="#00FA9A" height="54.7682" rx="17.5" ry="17.5" style="stroke:#181818;stroke-width:2.0999999999999996;" width="86.8" x="746.2" y="4244.7809"/><text fill="#000000" font-family="sans-serif" font-size="19.6" lengthAdjust="spacing" textLength="58.8" x="760.2" y="4281.2424">红黑树</text><path d="M676.2,4272.1649 L690.2,4272.1649 C711.2,4272.1649 711.2,4272.1649 732.2,4272.1649 L746.2,4272.1649 " fill="none" style="stroke:#181818;stroke-width:1.3999999999999997;"/><rect fill="#F0F8FF" height="54.7682" rx="17.5" ry="17.5" style="stroke:#181818;stroke-width:2.0999999999999996;" width="65.8" x="746.2" y="4327.549"/><text fill="#000000" font-family="sans-serif" font-size="19.6" lengthAdjust="spacing" textLength="37.8" x="760.2" y="4364.0105">B 树</text><path d="M676.2,4272.1649 L690.2,4272.1649 C711.2,4272.1649 711.2,4354.9331 732.2,4354.9331 L746.2,4354.9331 " fill="none" style="stroke:#181818;stroke-width:1.3999999999999997;"/><rect fill="#00FA9A" height="54.7682" rx="17.5" ry="17.5" style="stroke:#181818;stroke-width:2.0999999999999996;" width="77" x="746.2" y="4410.3172"/><text fill="#000000" font-family="sans-serif" font-size="19.6" lengthAdjust="spacing" textLength="49" x="760.2" y="4446.7787">B+ 树</text><path d="M676.2,4272.1649 L690.2,4272.1649 C711.2,4272.1649 711.2,4437.7013 732.2,4437.7013 L746.2,4437.7013 " fill="none" style="stroke:#181818;stroke-width:1.3999999999999997;"/><path d="M494.2,4354.9331 L508.2,4354.9331 C529.2,4354.9331 529.2,4272.1649 550.2,4272.1649 L564.2,4272.1649 " fill="none" style="stroke:#181818;stroke-width:1.3999999999999997;"/><rect fill="#ADD8E6" height="54.7682" rx="17.5" ry="17.5" style="stroke:#181818;stroke-width:2.0999999999999996;" width="68.6" x="564.2" y="4493.0854"/><text fill="#000000" font-family="sans-serif" font-size="19.6" lengthAdjust="spacing" textLength="40.6" x="578.2" y="4529.5469">O(n)</text><rect fill="#F0F8FF" height="54.7682" rx="17.5" ry="17.5" style="stroke:#181818;stroke-width:2.0999999999999996;" width="106.4" x="702.8" y="4493.0854"/><text fill="#000000" font-family="sans-serif" font-size="19.6" lengthAdjust="spacing" textLength="78.4" x="716.8" y="4529.5469">顺序查找</text><path d="M632.8,4520.4694 L646.8,4520.4694 C667.8,4520.4694 667.8,4520.4694 688.8,4520.4694 L702.8,4520.4694 " fill="none" style="stroke:#181818;stroke-width:1.3999999999999997;"/><path d="M494.2,4354.9331 L508.2,4354.9331 C529.2,4354.9331 529.2,4520.4694 550.2,4520.4694 L564.2,4520.4694 " fill="none" style="stroke:#181818;stroke-width:1.3999999999999997;"/><rect fill="#ADD8E6" height="54.7682" rx="17.5" ry="17.5" style="stroke:#181818;stroke-width:2.0999999999999996;" width="68.6" x="564.2" y="4575.8535"/><text fill="#000000" font-family="sans-serif" font-size="19.6" lengthAdjust="spacing" textLength="40.6" x="578.2" y="4612.315">O(1)</text><rect fill="#F0F8FF" height="54.7682" rx="17.5" ry="17.5" style="stroke:#181818;stroke-width:2.0999999999999996;" width="106.4" x="702.8" y="4575.8535"/><text fill="#000000" font-family="sans-serif" font-size="19.6" lengthAdjust="spacing" textLength="78.4" x="716.8" y="4612.315">哈希查找</text><path d="M632.8,4603.2376 L646.8,4603.2376 C667.8,4603.2376 667.8,4603.2376 688.8,4603.2376 L702.8,4603.2376 " fill="none" style="stroke:#181818;stroke-width:1.3999999999999997;"/><path d="M494.2,4354.9331 L508.2,4354.9331 C529.2,4354.9331 529.2,4603.2376 550.2,4603.2376 L564.2,4603.2376 " fill="none" style="stroke:#181818;stroke-width:1.3999999999999997;"/><path d="M238,2329.3108 L252,2329.3108 C273,2329.3108 273,4354.9331 294,4354.9331 L308,4354.9331 " fill="none" style="stroke:#181818;stroke-width:1.3999999999999997;"/><path d="M100.8,2329.3108 L114.8,2329.3108 C135.8,2329.3108 135.8,2329.3108 156.8,2329.3108 L170.8,2329.3108 " fill="none" style="stroke:#181818;stroke-width:1.3999999999999997;"/><!--MD5=[db63b579b699c14416b9926a6e801493]
@startmindmap

+[#OrangeRed] 算法题

++[#yellow] 算法

+++[#Pink] 基本思想

++++[#MediumSpringGreen] 递归 / Recursion
+++++_ 深度优先
+++++_ 判断结束条件

++++[#MediumSpringGreen] 回溯
+++++_ 前置操作
+++++_ 递归（在递归中循环）
+++++_ 后置操作（撤销前置操作）

++++[#MediumSpringGreen] 贪心
+++++_ 及时舍弃，只要第一

++++[#MediumSpringGreen] 分治
++++[#MediumSpringGreen] 双指针 / Two Pointers
++++[#MediumSpringGreen] 快慢指针 / Fast & Slow Pointers

++++[#MediumSpringGreen] 深度优先搜索 / Depth First Search
+++++_ 递归
+++++_ 未知深度

++++[#MediumSpringGreen] 广度优先搜索 / Breath First Search
+++++_ 数组（多维）
+++++_ 多层循环
+++++_ 可能需要队列


++++[#AliceBlue] 位运算
++++[#AliceBlue] 穷举
++++[#AliceBlue] 模拟

++++[#MediumSpringGreen] 动态规划 / Dynamic Programming
+++++[#GhostWhite] 套路
++++++_ 数组 / 二维数组
++++++_ 数组类型一般是整型或者布尔，用来存储长度或状态
+++++[#GhostWhite] 题型
++++++_ 背包问题
++++++_ 最长子序列
++++++_ 计数问题
+++++[#GhostWhite] 分类
++++++_ Recursion
++++++_ Top+Down
++++++_ Bottom+Up

++++[#MediumSpringGreen] 滑动窗口 / Sliding Window
+++++_ 两层循环
+++++_ 右指针遍历滑动，左指针在二层循环（while）中跟随滑动


+++[#Pink] 算法技巧

++++[#AliceBlue] 记忆化搜索
++++[#AliceBlue] 并查集
++++[#AliceBlue] 前缀和
++++[#AliceBlue] 扫描线

++++[#AliceBlue] 多线程
++++[#AliceBlue] 设计模式


+++[#Pink] 模式

++++[#MediumSpringGreen] 合并区间 / Merge Intervals
++++[#AliceBlue] 双堆 / Two Heaps
++++[#AliceBlue] 子集 / Subsets
++++[#MediumSpringGreen] 前 K 个 / K’ Elements / 堆 / PriorityQueue
++++[#AliceBlue] 多路归并 / K-way merge
++++[#AliceBlue] 背包 / Knapsack
++++[#AliceBlue] 子序列
++++[#AliceBlue] 股票
++++[#AliceBlue] 打家劫舍


+++[#Pink] 图算法

++++[#MediumSpringGreen] 最小生成树
++++[#MediumSpringGreen] 最短路径
++++[#AliceBlue] 拓扑排序 / Topological Sort
++++[#AliceBlue] 关键路径
++++[#AliceBlue] 邻接矩阵
++++[#AliceBlue] 邻接表

+++[#Pink] 字符串匹配算法

++++[#MediumSpringGreen] Trie 算法 / 字典树
++++[#AliceBlue] BF 算法 / 暴力匹配
++++[#AliceBlue] BM 算法
++++[#AliceBlue] KMP 算法

+++[#Pink] 排序算法 / Sort

++++[#LightBlue] O(n^2)
+++++[#MediumSpringGreen] 冒泡排序
+++++[#MediumSpringGreen] 选择排序
+++++[#MediumSpringGreen] 插入排序
+++++[#AliceBlue] 希尔排序
++++[#LightBlue] O(n log n)
+++++[#MediumSpringGreen] 归并排序
+++++[#MediumSpringGreen] 堆排序
+++++[#AliceBlue] 快速排序
++++[#LightBlue] O(n + k)
+++++[#AliceBlue] 桶排序
+++++[#AliceBlue] 基数排序
+++++[#AliceBlue] 计数排序

+++[#Pink] 查找算法 / Search

++++[#LightBlue] O(log 2n)
+++++[#MediumSpringGreen] 二分查找 / Binary Search
+++++[#AliceBlue] 二叉查找树
+++++[#MediumSpringGreen] 红黑树
+++++[#AliceBlue] B 树
+++++[#MediumSpringGreen] B+ 树
++++[#LightBlue] O(n)
+++++[#AliceBlue] 顺序查找
++++[#LightBlue] O(1)
+++++[#AliceBlue] 哈希查找


@endmindmap

PlantUML version 1.2022.4(Sat Apr 09 21:29:17 GMT+08:00 2022)
(GPL source distribution)
Java Runtime: OpenJDK Runtime Environment
JVM: OpenJDK 64-Bit Server VM
Default Encoding: GBK
Language: zh
Country: CN
--></g></svg>