<?xml version="1.0" encoding="UTF-8" standalone="no"?><svg xmlns="http://www.w3.org/2000/svg" xmlns:xlink="http://www.w3.org/1999/xlink" contentStyleType="text/css" height="3329px" preserveAspectRatio="none" style="width:1061px;height:3329px;background:#FFFFFF;" version="1.1" viewBox="0 0 1061 3329" width="1061px" zoomAndPan="magnify"><defs/><g><rect fill="#FF4500" height="39.1201" rx="12.5" ry="12.5" style="stroke:#181818;stroke-width:1.5;" width="62" x="10" y="1644.2334"/><text fill="#000000" font-family="sans-serif" font-size="14" lengthAdjust="spacing" textLength="42" x="20" y="1670.2773">算法题</text><rect fill="#FFFF00" height="39.1201" rx="12.5" ry="12.5" style="stroke:#181818;stroke-width:1.5;" width="48" x="122" y="1644.2334"/><text fill="#000000" font-family="sans-serif" font-size="14" lengthAdjust="spacing" textLength="28" x="132" y="1670.2773">算法</text><rect fill="#FFC0CB" height="39.1201" rx="12.5" ry="12.5" style="stroke:#181818;stroke-width:1.5;" width="76" x="220" y="402.7109"/><text fill="#000000" font-family="sans-serif" font-size="14" lengthAdjust="spacing" textLength="56" x="230" y="428.7549">基本思想</text><rect fill="#00FA9A" height="39.1201" rx="12.5" ry="12.5" style="stroke:#181818;stroke-width:1.5;" width="124" x="346" y="20"/><text fill="#000000" font-family="sans-serif" font-size="14" lengthAdjust="spacing" textLength="104" x="356" y="46.0439">递归 / Recursion</text><text fill="#000000" font-family="sans-serif" font-size="14" lengthAdjust="spacing" textLength="56" x="523" y="35.4839">深度优先</text><path d="M470,39.5601 L480,39.5601 C495,39.5601 495,29 510,29 L520,29 " fill="none" style="stroke:#181818;stroke-width:1.0;"/><text fill="#000000" font-family="sans-serif" font-size="14" lengthAdjust="spacing" textLength="84" x="523" y="56.604">判断结束条件</text><path d="M470,39.5601 L480,39.5601 C495,39.5601 495,50.1201 510,50.1201 L520,50.1201 " fill="none" style="stroke:#181818;stroke-width:1.0;"/><path d="M296,422.271 L306,422.271 C321,422.271 321,39.5601 336,39.5601 L346,39.5601 " fill="none" style="stroke:#181818;stroke-width:1.0;"/><rect fill="#00FA9A" height="39.1201" rx="12.5" ry="12.5" style="stroke:#181818;stroke-width:1.5;" width="48" x="346" y="81.2402"/><text fill="#000000" font-family="sans-serif" font-size="14" lengthAdjust="spacing" textLength="28" x="356" y="107.2842">回溯</text><text fill="#000000" font-family="sans-serif" font-size="14" lengthAdjust="spacing" textLength="56" x="447" y="86.1641">前置操作</text><path d="M394,100.8003 L404,100.8003 C419,100.8003 419,79.6802 434,79.6802 L444,79.6802 " fill="none" style="stroke:#181818;stroke-width:1.0;"/><text fill="#000000" font-family="sans-serif" font-size="14" lengthAdjust="spacing" textLength="140" x="447" y="107.2842">递归（在递归中循环）</text><path d="M394,100.8003 L404,100.8003 C419,100.8003 419,100.8003 434,100.8003 L444,100.8003 " fill="none" style="stroke:#181818;stroke-width:1.0;"/><text fill="#000000" font-family="sans-serif" font-size="14" lengthAdjust="spacing" textLength="168" x="447" y="128.4043">后置操作（撤销前置操作）</text><path d="M394,100.8003 L404,100.8003 C419,100.8003 419,121.9204 434,121.9204 L444,121.9204 " fill="none" style="stroke:#181818;stroke-width:1.0;"/><path d="M296,422.271 L306,422.271 C321,422.271 321,100.8003 336,100.8003 L346,100.8003 " fill="none" style="stroke:#181818;stroke-width:1.0;"/><rect fill="#00FA9A" height="39.1201" rx="12.5" ry="12.5" style="stroke:#181818;stroke-width:1.5;" width="48" x="346" y="140.3604"/><text fill="#000000" font-family="sans-serif" font-size="14" lengthAdjust="spacing" textLength="28" x="356" y="166.4043">贪心</text><text fill="#000000" font-family="sans-serif" font-size="14" lengthAdjust="spacing" textLength="126" x="447" y="166.4043">及时舍弃，只要第一</text><path d="M394,159.9204 L404,159.9204 C419,159.9204 419,159.9204 434,159.9204 L444,159.9204 " fill="none" style="stroke:#181818;stroke-width:1.0;"/><path d="M296,422.271 L306,422.271 C321,422.271 321,159.9204 336,159.9204 L346,159.9204 " fill="none" style="stroke:#181818;stroke-width:1.0;"/><rect fill="#00FA9A" height="39.1201" rx="12.5" ry="12.5" style="stroke:#181818;stroke-width:1.5;" width="48" x="346" y="199.4805"/><text fill="#000000" font-family="sans-serif" font-size="14" lengthAdjust="spacing" textLength="28" x="356" y="225.5244">分治</text><path d="M296,422.271 L306,422.271 C321,422.271 321,219.0405 336,219.0405 L346,219.0405 " fill="none" style="stroke:#181818;stroke-width:1.0;"/><rect fill="#00FA9A" height="39.1201" rx="12.5" ry="12.5" style="stroke:#181818;stroke-width:1.5;" width="156" x="346" y="258.6006"/><text fill="#000000" font-family="sans-serif" font-size="14" lengthAdjust="spacing" textLength="136" x="356" y="284.6445">双指针 / Two Pointers</text><path d="M296,422.271 L306,422.271 C321,422.271 321,278.1606 336,278.1606 L346,278.1606 " fill="none" style="stroke:#181818;stroke-width:1.0;"/><rect fill="#00FA9A" height="39.1201" rx="12.5" ry="12.5" style="stroke:#181818;stroke-width:1.5;" width="218" x="346" y="317.7207"/><text fill="#000000" font-family="sans-serif" font-size="14" lengthAdjust="spacing" textLength="198" x="356" y="343.7646">快慢指针 / Fast &amp; Slow Pointers</text><path d="M296,422.271 L306,422.271 C321,422.271 321,337.2808 336,337.2808 L346,337.2808 " fill="none" style="stroke:#181818;stroke-width:1.0;"/><rect fill="#00FA9A" height="39.1201" rx="12.5" ry="12.5" style="stroke:#181818;stroke-width:1.5;" width="235" x="346" y="376.8408"/><text fill="#000000" font-family="sans-serif" font-size="14" lengthAdjust="spacing" textLength="215" x="356" y="402.8848">深度优先搜索 / Depth First Search</text><text fill="#000000" font-family="sans-serif" font-size="14" lengthAdjust="spacing" textLength="28" x="634" y="392.3247">递归</text><path d="M581,396.4009 L591,396.4009 C606,396.4009 606,385.8408 621,385.8408 L631,385.8408 " fill="none" style="stroke:#181818;stroke-width:1.0;"/><text fill="#000000" font-family="sans-serif" font-size="14" lengthAdjust="spacing" textLength="56" x="634" y="413.4448">未知深度</text><path d="M581,396.4009 L591,396.4009 C606,396.4009 606,406.9609 621,406.9609 L631,406.9609 " fill="none" style="stroke:#181818;stroke-width:1.0;"/><path d="M296,422.271 L306,422.271 C321,422.271 321,396.4009 336,396.4009 L346,396.4009 " fill="none" style="stroke:#181818;stroke-width:1.0;"/><rect fill="#00FA9A" height="39.1201" rx="12.5" ry="12.5" style="stroke:#181818;stroke-width:1.5;" width="239" x="346" y="435.9609"/><text fill="#000000" font-family="sans-serif" font-size="14" lengthAdjust="spacing" textLength="219" x="356" y="462.0049">广度优先搜索 / Breath First Search</text><text fill="#000000" font-family="sans-serif" font-size="14" lengthAdjust="spacing" textLength="84" x="638" y="440.8848">数组（多维）</text><path d="M585,455.521 L595,455.521 C610,455.521 610,434.4009 625,434.4009 L635,434.4009 " fill="none" style="stroke:#181818;stroke-width:1.0;"/><text fill="#000000" font-family="sans-serif" font-size="14" lengthAdjust="spacing" textLength="56" x="638" y="462.0049">多层循环</text><path d="M585,455.521 L595,455.521 C610,455.521 610,455.521 625,455.521 L635,455.521 " fill="none" style="stroke:#181818;stroke-width:1.0;"/><text fill="#000000" font-family="sans-serif" font-size="14" lengthAdjust="spacing" textLength="84" x="638" y="483.125">可能需要队列</text><path d="M585,455.521 L595,455.521 C610,455.521 610,476.6411 625,476.6411 L635,476.6411 " fill="none" style="stroke:#181818;stroke-width:1.0;"/><path d="M296,422.271 L306,422.271 C321,422.271 321,455.521 336,455.521 L346,455.521 " fill="none" style="stroke:#181818;stroke-width:1.0;"/><rect fill="#F0F8FF" height="39.1201" rx="12.5" ry="12.5" style="stroke:#181818;stroke-width:1.5;" width="62" x="346" y="495.0811"/><text fill="#000000" font-family="sans-serif" font-size="14" lengthAdjust="spacing" textLength="42" x="356" y="521.125">位运算</text><path d="M296,422.271 L306,422.271 C321,422.271 321,514.6411 336,514.6411 L346,514.6411 " fill="none" style="stroke:#181818;stroke-width:1.0;"/><rect fill="#F0F8FF" height="39.1201" rx="12.5" ry="12.5" style="stroke:#181818;stroke-width:1.5;" width="48" x="346" y="554.2012"/><text fill="#000000" font-family="sans-serif" font-size="14" lengthAdjust="spacing" textLength="28" x="356" y="580.2451">穷举</text><path d="M296,422.271 L306,422.271 C321,422.271 321,573.7612 336,573.7612 L346,573.7612 " fill="none" style="stroke:#181818;stroke-width:1.0;"/><rect fill="#F0F8FF" height="39.1201" rx="12.5" ry="12.5" style="stroke:#181818;stroke-width:1.5;" width="48" x="346" y="613.3213"/><text fill="#000000" font-family="sans-serif" font-size="14" lengthAdjust="spacing" textLength="28" x="356" y="639.3652">模拟</text><path d="M296,422.271 L306,422.271 C321,422.271 321,632.8813 336,632.8813 L346,632.8813 " fill="none" style="stroke:#181818;stroke-width:1.0;"/><rect fill="#00FA9A" height="39.1201" rx="12.5" ry="12.5" style="stroke:#181818;stroke-width:1.5;" width="230" x="346" y="672.4414"/><text fill="#000000" font-family="sans-serif" font-size="14" lengthAdjust="spacing" textLength="210" x="356" y="698.4854">动态规划 / Dynamic Programming</text><rect fill="#F8F8FF" height="39.1201" rx="12.5" ry="12.5" style="stroke:#181818;stroke-width:1.5;" width="48" x="626" y="610.1411"/><text fill="#000000" font-family="sans-serif" font-size="14" lengthAdjust="spacing" textLength="28" x="636" y="636.1851">套路</text><text fill="#000000" font-family="sans-serif" font-size="14" lengthAdjust="spacing" textLength="96" x="727" y="625.625">数组 / 二维数组</text><path d="M674,629.7012 L684,629.7012 C699,629.7012 699,619.1411 714,619.1411 L724,619.1411 " fill="none" style="stroke:#181818;stroke-width:1.0;"/><text fill="#000000" font-family="sans-serif" font-size="14" lengthAdjust="spacing" textLength="322" x="727" y="646.7451">数组类型一般是整型或者布尔，用来存储长度或状态</text><path d="M674,629.7012 L684,629.7012 C699,629.7012 699,640.2612 714,640.2612 L724,640.2612 " fill="none" style="stroke:#181818;stroke-width:1.0;"/><path d="M576,692.0015 L586,692.0015 C601,692.0015 601,629.7012 616,629.7012 L626,629.7012 " fill="none" style="stroke:#181818;stroke-width:1.0;"/><rect fill="#F8F8FF" height="39.1201" rx="12.5" ry="12.5" style="stroke:#181818;stroke-width:1.5;" width="48" x="626" y="669.2612"/><text fill="#000000" font-family="sans-serif" font-size="14" lengthAdjust="spacing" textLength="28" x="636" y="695.3052">题型</text><text fill="#000000" font-family="sans-serif" font-size="14" lengthAdjust="spacing" textLength="56" x="727" y="674.1851">背包问题</text><path d="M674,688.8213 L684,688.8213 C699,688.8213 699,667.7012 714,667.7012 L724,667.7012 " fill="none" style="stroke:#181818;stroke-width:1.0;"/><text fill="#000000" font-family="sans-serif" font-size="14" lengthAdjust="spacing" textLength="70" x="727" y="695.3052">最长子序列</text><path d="M674,688.8213 L684,688.8213 C699,688.8213 699,688.8213 714,688.8213 L724,688.8213 " fill="none" style="stroke:#181818;stroke-width:1.0;"/><text fill="#000000" font-family="sans-serif" font-size="14" lengthAdjust="spacing" textLength="56" x="727" y="716.4253">计数问题</text><path d="M674,688.8213 L684,688.8213 C699,688.8213 699,709.9414 714,709.9414 L724,709.9414 " fill="none" style="stroke:#181818;stroke-width:1.0;"/><path d="M576,692.0015 L586,692.0015 C601,692.0015 601,688.8213 616,688.8213 L626,688.8213 " fill="none" style="stroke:#181818;stroke-width:1.0;"/><rect fill="#F8F8FF" height="39.1201" rx="12.5" ry="12.5" style="stroke:#181818;stroke-width:1.5;" width="48" x="626" y="732.6216"/><text fill="#000000" font-family="sans-serif" font-size="14" lengthAdjust="spacing" textLength="28" x="636" y="758.6655">分类</text><text fill="#000000" font-family="sans-serif" font-size="14" lengthAdjust="spacing" textLength="64" x="727" y="737.5454">Recursion</text><path d="M674,752.1816 L684,752.1816 C699,752.1816 699,731.0615 714,731.0615 L724,731.0615 " fill="none" style="stroke:#181818;stroke-width:1.0;"/><text fill="#000000" font-family="sans-serif" font-size="14" lengthAdjust="spacing" textLength="68" x="727" y="758.6655">Top+Down</text><path d="M674,752.1816 L684,752.1816 C699,752.1816 699,752.1816 714,752.1816 L724,752.1816 " fill="none" style="stroke:#181818;stroke-width:1.0;"/><text fill="#000000" font-family="sans-serif" font-size="14" lengthAdjust="spacing" textLength="69" x="727" y="779.7856">Bottom+Up</text><path d="M674,752.1816 L684,752.1816 C699,752.1816 699,773.3018 714,773.3018 L724,773.3018 " fill="none" style="stroke:#181818;stroke-width:1.0;"/><path d="M576,692.0015 L586,692.0015 C601,692.0015 601,752.1816 616,752.1816 L626,752.1816 " fill="none" style="stroke:#181818;stroke-width:1.0;"/><path d="M296,422.271 L306,422.271 C321,422.271 321,692.0015 336,692.0015 L346,692.0015 " fill="none" style="stroke:#181818;stroke-width:1.0;"/><rect fill="#00FA9A" height="39.1201" rx="12.5" ry="12.5" style="stroke:#181818;stroke-width:1.5;" width="183" x="346" y="785.4219"/><text fill="#000000" font-family="sans-serif" font-size="14" lengthAdjust="spacing" textLength="163" x="356" y="811.4658">滑动窗口 / Sliding Window</text><text fill="#000000" font-family="sans-serif" font-size="14" lengthAdjust="spacing" textLength="56" x="582" y="800.9058">两层循环</text><path d="M529,804.9819 L539,804.9819 C554,804.9819 554,794.4219 569,794.4219 L579,794.4219 " fill="none" style="stroke:#181818;stroke-width:1.0;"/><text fill="#000000" font-family="sans-serif" font-size="14" lengthAdjust="spacing" textLength="353" x="582" y="822.0259">右指针遍历滑动，左指针在二层循环（while）中跟随滑动</text><path d="M529,804.9819 L539,804.9819 C554,804.9819 554,815.542 569,815.542 L579,815.542 " fill="none" style="stroke:#181818;stroke-width:1.0;"/><path d="M296,422.271 L306,422.271 C321,422.271 321,804.9819 336,804.9819 L346,804.9819 " fill="none" style="stroke:#181818;stroke-width:1.0;"/><path d="M170,1663.7935 L180,1663.7935 C195,1663.7935 195,422.271 210,422.271 L220,422.271 " fill="none" style="stroke:#181818;stroke-width:1.0;"/><rect fill="#FFC0CB" height="39.1201" rx="12.5" ry="12.5" style="stroke:#181818;stroke-width:1.5;" width="76" x="220" y="992.3423"/><text fill="#000000" font-family="sans-serif" font-size="14" lengthAdjust="spacing" textLength="56" x="230" y="1018.3862">算法技巧</text><rect fill="#F0F8FF" height="39.1201" rx="12.5" ry="12.5" style="stroke:#181818;stroke-width:1.5;" width="90" x="346" y="844.542"/><text fill="#000000" font-family="sans-serif" font-size="14" lengthAdjust="spacing" textLength="70" x="356" y="870.5859">记忆化搜索</text><path d="M296,1011.9023 L306,1011.9023 C321,1011.9023 321,864.1021 336,864.1021 L346,864.1021 " fill="none" style="stroke:#181818;stroke-width:1.0;"/><rect fill="#F0F8FF" height="39.1201" rx="12.5" ry="12.5" style="stroke:#181818;stroke-width:1.5;" width="62" x="346" y="903.6621"/><text fill="#000000" font-family="sans-serif" font-size="14" lengthAdjust="spacing" textLength="42" x="356" y="929.7061">并查集</text><path d="M296,1011.9023 L306,1011.9023 C321,1011.9023 321,923.2222 336,923.2222 L346,923.2222 " fill="none" style="stroke:#181818;stroke-width:1.0;"/><rect fill="#F0F8FF" height="39.1201" rx="12.5" ry="12.5" style="stroke:#181818;stroke-width:1.5;" width="62" x="346" y="962.7822"/><text fill="#000000" font-family="sans-serif" font-size="14" lengthAdjust="spacing" textLength="42" x="356" y="988.8262">前缀和</text><path d="M296,1011.9023 L306,1011.9023 C321,1011.9023 321,982.3423 336,982.3423 L346,982.3423 " fill="none" style="stroke:#181818;stroke-width:1.0;"/><rect fill="#F0F8FF" height="39.1201" rx="12.5" ry="12.5" style="stroke:#181818;stroke-width:1.5;" width="62" x="346" y="1021.9023"/><text fill="#000000" font-family="sans-serif" font-size="14" lengthAdjust="spacing" textLength="42" x="356" y="1047.9463">扫描线</text><path d="M296,1011.9023 L306,1011.9023 C321,1011.9023 321,1041.4624 336,1041.4624 L346,1041.4624 " fill="none" style="stroke:#181818;stroke-width:1.0;"/><rect fill="#F0F8FF" height="39.1201" rx="12.5" ry="12.5" style="stroke:#181818;stroke-width:1.5;" width="62" x="346" y="1081.0225"/><text fill="#000000" font-family="sans-serif" font-size="14" lengthAdjust="spacing" textLength="42" x="356" y="1107.0664">多线程</text><path d="M296,1011.9023 L306,1011.9023 C321,1011.9023 321,1100.5825 336,1100.5825 L346,1100.5825 " fill="none" style="stroke:#181818;stroke-width:1.0;"/><rect fill="#F0F8FF" height="39.1201" rx="12.5" ry="12.5" style="stroke:#181818;stroke-width:1.5;" width="76" x="346" y="1140.1426"/><text fill="#000000" font-family="sans-serif" font-size="14" lengthAdjust="spacing" textLength="56" x="356" y="1166.1865">设计模式</text><path d="M296,1011.9023 L306,1011.9023 C321,1011.9023 321,1159.7026 336,1159.7026 L346,1159.7026 " fill="none" style="stroke:#181818;stroke-width:1.0;"/><path d="M170,1663.7935 L180,1663.7935 C195,1663.7935 195,1011.9023 210,1011.9023 L220,1011.9023 " fill="none" style="stroke:#181818;stroke-width:1.0;"/><rect fill="#FFC0CB" height="39.1201" rx="12.5" ry="12.5" style="stroke:#181818;stroke-width:1.5;" width="48" x="220" y="1435.7432"/><text fill="#000000" font-family="sans-serif" font-size="14" lengthAdjust="spacing" textLength="28" x="230" y="1461.7871">模式</text><rect fill="#00FA9A" height="39.1201" rx="12.5" ry="12.5" style="stroke:#181818;stroke-width:1.5;" width="185" x="318" y="1199.2627"/><text fill="#000000" font-family="sans-serif" font-size="14" lengthAdjust="spacing" textLength="165" x="328" y="1225.3066">合并区间 / Merge Intervals</text><path d="M268,1455.3032 L278,1455.3032 C293,1455.3032 293,1218.8228 308,1218.8228 L318,1218.8228 " fill="none" style="stroke:#181818;stroke-width:1.0;"/><rect fill="#F0F8FF" height="39.1201" rx="12.5" ry="12.5" style="stroke:#181818;stroke-width:1.5;" width="130" x="318" y="1258.3828"/><text fill="#000000" font-family="sans-serif" font-size="14" lengthAdjust="spacing" textLength="110" x="328" y="1284.4268">双堆 / Two Heaps</text><path d="M268,1455.3032 L278,1455.3032 C293,1455.3032 293,1277.9429 308,1277.9429 L318,1277.9429 " fill="none" style="stroke:#181818;stroke-width:1.0;"/><rect fill="#F0F8FF" height="39.1201" rx="12.5" ry="12.5" style="stroke:#181818;stroke-width:1.5;" width="111" x="318" y="1317.5029"/><text fill="#000000" font-family="sans-serif" font-size="14" lengthAdjust="spacing" textLength="91" x="328" y="1343.5469">子集 / Subsets</text><path d="M268,1455.3032 L278,1455.3032 C293,1455.3032 293,1337.063 308,1337.063 L318,1337.063 " fill="none" style="stroke:#181818;stroke-width:1.0;"/><rect fill="#00FA9A" height="39.1201" rx="12.5" ry="12.5" style="stroke:#181818;stroke-width:1.5;" width="276" x="318" y="1376.623"/><text fill="#000000" font-family="sans-serif" font-size="14" lengthAdjust="spacing" textLength="256" x="328" y="1402.667">前 K 个 / K’ Elements / 堆 / PriorityQueue</text><path d="M268,1455.3032 L278,1455.3032 C293,1455.3032 293,1396.1831 308,1396.1831 L318,1396.1831 " fill="none" style="stroke:#181818;stroke-width:1.0;"/><rect fill="#F0F8FF" height="39.1201" rx="12.5" ry="12.5" style="stroke:#181818;stroke-width:1.5;" width="170" x="318" y="1435.7432"/><text fill="#000000" font-family="sans-serif" font-size="14" lengthAdjust="spacing" textLength="150" x="328" y="1461.7871">多路归并 / K-way merge</text><path d="M268,1455.3032 L278,1455.3032 C293,1455.3032 293,1455.3032 308,1455.3032 L318,1455.3032 " fill="none" style="stroke:#181818;stroke-width:1.0;"/><rect fill="#F0F8FF" height="39.1201" rx="12.5" ry="12.5" style="stroke:#181818;stroke-width:1.5;" width="122" x="318" y="1494.8633"/><text fill="#000000" font-family="sans-serif" font-size="14" lengthAdjust="spacing" textLength="102" x="328" y="1520.9072">背包 / Knapsack</text><path d="M268,1455.3032 L278,1455.3032 C293,1455.3032 293,1514.4233 308,1514.4233 L318,1514.4233 " fill="none" style="stroke:#181818;stroke-width:1.0;"/><rect fill="#F0F8FF" height="39.1201" rx="12.5" ry="12.5" style="stroke:#181818;stroke-width:1.5;" width="62" x="318" y="1553.9834"/><text fill="#000000" font-family="sans-serif" font-size="14" lengthAdjust="spacing" textLength="42" x="328" y="1580.0273">子序列</text><path d="M268,1455.3032 L278,1455.3032 C293,1455.3032 293,1573.5435 308,1573.5435 L318,1573.5435 " fill="none" style="stroke:#181818;stroke-width:1.0;"/><rect fill="#F0F8FF" height="39.1201" rx="12.5" ry="12.5" style="stroke:#181818;stroke-width:1.5;" width="48" x="318" y="1613.1035"/><text fill="#000000" font-family="sans-serif" font-size="14" lengthAdjust="spacing" textLength="28" x="328" y="1639.1475">股票</text><path d="M268,1455.3032 L278,1455.3032 C293,1455.3032 293,1632.6636 308,1632.6636 L318,1632.6636 " fill="none" style="stroke:#181818;stroke-width:1.0;"/><rect fill="#F0F8FF" height="39.1201" rx="12.5" ry="12.5" style="stroke:#181818;stroke-width:1.5;" width="76" x="318" y="1672.2236"/><text fill="#000000" font-family="sans-serif" font-size="14" lengthAdjust="spacing" textLength="56" x="328" y="1698.2676">打家劫舍</text><path d="M268,1455.3032 L278,1455.3032 C293,1455.3032 293,1691.7837 308,1691.7837 L318,1691.7837 " fill="none" style="stroke:#181818;stroke-width:1.0;"/><path d="M170,1663.7935 L180,1663.7935 C195,1663.7935 195,1455.3032 210,1455.3032 L220,1455.3032 " fill="none" style="stroke:#181818;stroke-width:1.0;"/><rect fill="#FFC0CB" height="39.1201" rx="12.5" ry="12.5" style="stroke:#181818;stroke-width:1.5;" width="62" x="220" y="1879.144"/><text fill="#000000" font-family="sans-serif" font-size="14" lengthAdjust="spacing" textLength="42" x="230" y="1905.188">图算法</text><rect fill="#00FA9A" height="39.1201" rx="12.5" ry="12.5" style="stroke:#181818;stroke-width:1.5;" width="90" x="332" y="1731.3438"/><text fill="#000000" font-family="sans-serif" font-size="14" lengthAdjust="spacing" textLength="70" x="342" y="1757.3877">最小生成树</text><path d="M282,1898.7041 L292,1898.7041 C307,1898.7041 307,1750.9038 322,1750.9038 L332,1750.9038 " fill="none" style="stroke:#181818;stroke-width:1.0;"/><rect fill="#00FA9A" height="39.1201" rx="12.5" ry="12.5" style="stroke:#181818;stroke-width:1.5;" width="76" x="332" y="1790.4639"/><text fill="#000000" font-family="sans-serif" font-size="14" lengthAdjust="spacing" textLength="56" x="342" y="1816.5078">最短路径</text><path d="M282,1898.7041 L292,1898.7041 C307,1898.7041 307,1810.0239 322,1810.0239 L332,1810.0239 " fill="none" style="stroke:#181818;stroke-width:1.0;"/><rect fill="#F0F8FF" height="39.1201" rx="12.5" ry="12.5" style="stroke:#181818;stroke-width:1.5;" width="191" x="332" y="1849.584"/><text fill="#000000" font-family="sans-serif" font-size="14" lengthAdjust="spacing" textLength="171" x="342" y="1875.6279">拓扑排序 / Topological Sort</text><path d="M282,1898.7041 L292,1898.7041 C307,1898.7041 307,1869.144 322,1869.144 L332,1869.144 " fill="none" style="stroke:#181818;stroke-width:1.0;"/><rect fill="#F0F8FF" height="39.1201" rx="12.5" ry="12.5" style="stroke:#181818;stroke-width:1.5;" width="76" x="332" y="1908.7041"/><text fill="#000000" font-family="sans-serif" font-size="14" lengthAdjust="spacing" textLength="56" x="342" y="1934.748">关键路径</text><path d="M282,1898.7041 L292,1898.7041 C307,1898.7041 307,1928.2642 322,1928.2642 L332,1928.2642 " fill="none" style="stroke:#181818;stroke-width:1.0;"/><rect fill="#F0F8FF" height="39.1201" rx="12.5" ry="12.5" style="stroke:#181818;stroke-width:1.5;" width="76" x="332" y="1967.8242"/><text fill="#000000" font-family="sans-serif" font-size="14" lengthAdjust="spacing" textLength="56" x="342" y="1993.8682">邻接矩阵</text><path d="M282,1898.7041 L292,1898.7041 C307,1898.7041 307,1987.3843 322,1987.3843 L332,1987.3843 " fill="none" style="stroke:#181818;stroke-width:1.0;"/><rect fill="#F0F8FF" height="39.1201" rx="12.5" ry="12.5" style="stroke:#181818;stroke-width:1.5;" width="62" x="332" y="2026.9443"/><text fill="#000000" font-family="sans-serif" font-size="14" lengthAdjust="spacing" textLength="42" x="342" y="2052.9883">邻接表</text><path d="M282,1898.7041 L292,1898.7041 C307,1898.7041 307,2046.5044 322,2046.5044 L332,2046.5044 " fill="none" style="stroke:#181818;stroke-width:1.0;"/><path d="M170,1663.7935 L180,1663.7935 C195,1663.7935 195,1898.7041 210,1898.7041 L220,1898.7041 " fill="none" style="stroke:#181818;stroke-width:1.0;"/><rect fill="#FFC0CB" height="39.1201" rx="12.5" ry="12.5" style="stroke:#181818;stroke-width:1.5;" width="118" x="220" y="2174.7446"/><text fill="#000000" font-family="sans-serif" font-size="14" lengthAdjust="spacing" textLength="98" x="230" y="2200.7886">字符串匹配算法</text><rect fill="#00FA9A" height="39.1201" rx="12.5" ry="12.5" style="stroke:#181818;stroke-width:1.5;" width="131" x="388" y="2086.0645"/><text fill="#000000" font-family="sans-serif" font-size="14" lengthAdjust="spacing" textLength="111" x="398" y="2112.1084">Trie 算法 / 字典树</text><path d="M338,2194.3047 L348,2194.3047 C363,2194.3047 363,2105.6245 378,2105.6245 L388,2105.6245 " fill="none" style="stroke:#181818;stroke-width:1.0;"/><rect fill="#F0F8FF" height="39.1201" rx="12.5" ry="12.5" style="stroke:#181818;stroke-width:1.5;" width="138" x="388" y="2145.1846"/><text fill="#000000" font-family="sans-serif" font-size="14" lengthAdjust="spacing" textLength="118" x="398" y="2171.2285">BF 算法 / 暴力匹配</text><path d="M338,2194.3047 L348,2194.3047 C363,2194.3047 363,2164.7446 378,2164.7446 L388,2164.7446 " fill="none" style="stroke:#181818;stroke-width:1.0;"/><rect fill="#F0F8FF" height="39.1201" rx="12.5" ry="12.5" style="stroke:#181818;stroke-width:1.5;" width="72" x="388" y="2204.3047"/><text fill="#000000" font-family="sans-serif" font-size="14" lengthAdjust="spacing" textLength="52" x="398" y="2230.3486">BM 算法</text><path d="M338,2194.3047 L348,2194.3047 C363,2194.3047 363,2223.8647 378,2223.8647 L388,2223.8647 " fill="none" style="stroke:#181818;stroke-width:1.0;"/><rect fill="#F0F8FF" height="39.1201" rx="12.5" ry="12.5" style="stroke:#181818;stroke-width:1.5;" width="81" x="388" y="2263.4248"/><text fill="#000000" font-family="sans-serif" font-size="14" lengthAdjust="spacing" textLength="61" x="398" y="2289.4688">KMP 算法</text><path d="M338,2194.3047 L348,2194.3047 C363,2194.3047 363,2282.9849 378,2282.9849 L388,2282.9849 " fill="none" style="stroke:#181818;stroke-width:1.0;"/><path d="M170,1663.7935 L180,1663.7935 C195,1663.7935 195,2194.3047 210,2194.3047 L220,2194.3047 " fill="none" style="stroke:#181818;stroke-width:1.0;"/><rect fill="#FFC0CB" height="39.1201" rx="12.5" ry="12.5" style="stroke:#181818;stroke-width:1.5;" width="114" x="220" y="2588.5854"/><text fill="#000000" font-family="sans-serif" font-size="14" lengthAdjust="spacing" textLength="94" x="230" y="2614.6294">排序算法 / Sort</text><rect fill="#ADD8E6" height="39.1201" rx="12.5" ry="12.5" style="stroke:#181818;stroke-width:1.5;" width="62" x="384" y="2411.2251"/><text fill="#000000" font-family="sans-serif" font-size="14" lengthAdjust="spacing" textLength="42" x="394" y="2437.269">O(n^2)</text><rect fill="#00FA9A" height="39.1201" rx="12.5" ry="12.5" style="stroke:#181818;stroke-width:1.5;" width="76" x="496" y="2322.5449"/><text fill="#000000" font-family="sans-serif" font-size="14" lengthAdjust="spacing" textLength="56" x="506" y="2348.5889">冒泡排序</text><path d="M446,2430.7852 L456,2430.7852 C471,2430.7852 471,2342.105 486,2342.105 L496,2342.105 " fill="none" style="stroke:#181818;stroke-width:1.0;"/><rect fill="#00FA9A" height="39.1201" rx="12.5" ry="12.5" style="stroke:#181818;stroke-width:1.5;" width="76" x="496" y="2381.665"/><text fill="#000000" font-family="sans-serif" font-size="14" lengthAdjust="spacing" textLength="56" x="506" y="2407.709">选择排序</text><path d="M446,2430.7852 L456,2430.7852 C471,2430.7852 471,2401.2251 486,2401.2251 L496,2401.2251 " fill="none" style="stroke:#181818;stroke-width:1.0;"/><rect fill="#00FA9A" height="39.1201" rx="12.5" ry="12.5" style="stroke:#181818;stroke-width:1.5;" width="76" x="496" y="2440.7852"/><text fill="#000000" font-family="sans-serif" font-size="14" lengthAdjust="spacing" textLength="56" x="506" y="2466.8291">插入排序</text><path d="M446,2430.7852 L456,2430.7852 C471,2430.7852 471,2460.3452 486,2460.3452 L496,2460.3452 " fill="none" style="stroke:#181818;stroke-width:1.0;"/><rect fill="#F0F8FF" height="39.1201" rx="12.5" ry="12.5" style="stroke:#181818;stroke-width:1.5;" width="76" x="496" y="2499.9053"/><text fill="#000000" font-family="sans-serif" font-size="14" lengthAdjust="spacing" textLength="56" x="506" y="2525.9492">希尔排序</text><path d="M446,2430.7852 L456,2430.7852 C471,2430.7852 471,2519.4653 486,2519.4653 L496,2519.4653 " fill="none" style="stroke:#181818;stroke-width:1.0;"/><path d="M334,2608.1455 L344,2608.1455 C359,2608.1455 359,2430.7852 374,2430.7852 L384,2430.7852 " fill="none" style="stroke:#181818;stroke-width:1.0;"/><rect fill="#ADD8E6" height="39.1201" rx="12.5" ry="12.5" style="stroke:#181818;stroke-width:1.5;" width="84" x="384" y="2618.1455"/><text fill="#000000" font-family="sans-serif" font-size="14" lengthAdjust="spacing" textLength="64" x="394" y="2644.1895">O(n log n)</text><rect fill="#00FA9A" height="39.1201" rx="12.5" ry="12.5" style="stroke:#181818;stroke-width:1.5;" width="76" x="518" y="2559.0254"/><text fill="#000000" font-family="sans-serif" font-size="14" lengthAdjust="spacing" textLength="56" x="528" y="2585.0693">归并排序</text><path d="M468,2637.7056 L478,2637.7056 C493,2637.7056 493,2578.5854 508,2578.5854 L518,2578.5854 " fill="none" style="stroke:#181818;stroke-width:1.0;"/><rect fill="#00FA9A" height="39.1201" rx="12.5" ry="12.5" style="stroke:#181818;stroke-width:1.5;" width="62" x="518" y="2618.1455"/><text fill="#000000" font-family="sans-serif" font-size="14" lengthAdjust="spacing" textLength="42" x="528" y="2644.1895">堆排序</text><path d="M468,2637.7056 L478,2637.7056 C493,2637.7056 493,2637.7056 508,2637.7056 L518,2637.7056 " fill="none" style="stroke:#181818;stroke-width:1.0;"/><rect fill="#F0F8FF" height="39.1201" rx="12.5" ry="12.5" style="stroke:#181818;stroke-width:1.5;" width="76" x="518" y="2677.2656"/><text fill="#000000" font-family="sans-serif" font-size="14" lengthAdjust="spacing" textLength="56" x="528" y="2703.3096">快速排序</text><path d="M468,2637.7056 L478,2637.7056 C493,2637.7056 493,2696.8257 508,2696.8257 L518,2696.8257 " fill="none" style="stroke:#181818;stroke-width:1.0;"/><path d="M334,2608.1455 L344,2608.1455 C359,2608.1455 359,2637.7056 374,2637.7056 L384,2637.7056 " fill="none" style="stroke:#181818;stroke-width:1.0;"/><rect fill="#ADD8E6" height="39.1201" rx="12.5" ry="12.5" style="stroke:#181818;stroke-width:1.5;" width="72" x="384" y="2795.5059"/><text fill="#000000" font-family="sans-serif" font-size="14" lengthAdjust="spacing" textLength="52" x="394" y="2821.5498">O(n + k)</text><rect fill="#F0F8FF" height="39.1201" rx="12.5" ry="12.5" style="stroke:#181818;stroke-width:1.5;" width="62" x="506" y="2736.3857"/><text fill="#000000" font-family="sans-serif" font-size="14" lengthAdjust="spacing" textLength="42" x="516" y="2762.4297">桶排序</text><path d="M456,2815.0659 L466,2815.0659 C481,2815.0659 481,2755.9458 496,2755.9458 L506,2755.9458 " fill="none" style="stroke:#181818;stroke-width:1.0;"/><rect fill="#F0F8FF" height="39.1201" rx="12.5" ry="12.5" style="stroke:#181818;stroke-width:1.5;" width="76" x="506" y="2795.5059"/><text fill="#000000" font-family="sans-serif" font-size="14" lengthAdjust="spacing" textLength="56" x="516" y="2821.5498">基数排序</text><path d="M456,2815.0659 L466,2815.0659 C481,2815.0659 481,2815.0659 496,2815.0659 L506,2815.0659 " fill="none" style="stroke:#181818;stroke-width:1.0;"/><rect fill="#F0F8FF" height="39.1201" rx="12.5" ry="12.5" style="stroke:#181818;stroke-width:1.5;" width="76" x="506" y="2854.626"/><text fill="#000000" font-family="sans-serif" font-size="14" lengthAdjust="spacing" textLength="56" x="516" y="2880.6699">计数排序</text><path d="M456,2815.0659 L466,2815.0659 C481,2815.0659 481,2874.186 496,2874.186 L506,2874.186 " fill="none" style="stroke:#181818;stroke-width:1.0;"/><path d="M334,2608.1455 L344,2608.1455 C359,2608.1455 359,2815.0659 374,2815.0659 L384,2815.0659 " fill="none" style="stroke:#181818;stroke-width:1.0;"/><path d="M170,1663.7935 L180,1663.7935 C195,1663.7935 195,2608.1455 210,2608.1455 L220,2608.1455 " fill="none" style="stroke:#181818;stroke-width:1.0;"/><rect fill="#FFC0CB" height="39.1201" rx="12.5" ry="12.5" style="stroke:#181818;stroke-width:1.5;" width="133" x="220" y="3091.1064"/><text fill="#000000" font-family="sans-serif" font-size="14" lengthAdjust="spacing" textLength="113" x="230" y="3117.1504">查找算法 / Search</text><rect fill="#ADD8E6" height="39.1201" rx="12.5" ry="12.5" style="stroke:#181818;stroke-width:1.5;" width="80" x="403" y="3031.9863"/><text fill="#000000" font-family="sans-serif" font-size="14" lengthAdjust="spacing" textLength="60" x="413" y="3058.0303">O(log 2n)</text><rect fill="#00FA9A" height="39.1201" rx="12.5" ry="12.5" style="stroke:#181818;stroke-width:1.5;" width="177" x="533" y="2913.7461"/><text fill="#000000" font-family="sans-serif" font-size="14" lengthAdjust="spacing" textLength="157" x="543" y="2939.79">二分查找 / Binary Search</text><path d="M483,3051.5464 L493,3051.5464 C508,3051.5464 508,2933.3062 523,2933.3062 L533,2933.3062 " fill="none" style="stroke:#181818;stroke-width:1.0;"/><rect fill="#F0F8FF" height="39.1201" rx="12.5" ry="12.5" style="stroke:#181818;stroke-width:1.5;" width="90" x="533" y="2972.8662"/><text fill="#000000" font-family="sans-serif" font-size="14" lengthAdjust="spacing" textLength="70" x="543" y="2998.9102">二叉查找树</text><path d="M483,3051.5464 L493,3051.5464 C508,3051.5464 508,2992.4263 523,2992.4263 L533,2992.4263 " fill="none" style="stroke:#181818;stroke-width:1.0;"/><rect fill="#00FA9A" height="39.1201" rx="12.5" ry="12.5" style="stroke:#181818;stroke-width:1.5;" width="62" x="533" y="3031.9863"/><text fill="#000000" font-family="sans-serif" font-size="14" lengthAdjust="spacing" textLength="42" x="543" y="3058.0303">红黑树</text><path d="M483,3051.5464 L493,3051.5464 C508,3051.5464 508,3051.5464 523,3051.5464 L533,3051.5464 " fill="none" style="stroke:#181818;stroke-width:1.0;"/><rect fill="#F0F8FF" height="39.1201" rx="12.5" ry="12.5" style="stroke:#181818;stroke-width:1.5;" width="47" x="533" y="3091.1064"/><text fill="#000000" font-family="sans-serif" font-size="14" lengthAdjust="spacing" textLength="27" x="543" y="3117.1504">B 树</text><path d="M483,3051.5464 L493,3051.5464 C508,3051.5464 508,3110.6665 523,3110.6665 L533,3110.6665 " fill="none" style="stroke:#181818;stroke-width:1.0;"/><rect fill="#00FA9A" height="39.1201" rx="12.5" ry="12.5" style="stroke:#181818;stroke-width:1.5;" width="55" x="533" y="3150.2266"/><text fill="#000000" font-family="sans-serif" font-size="14" lengthAdjust="spacing" textLength="35" x="543" y="3176.2705">B+ 树</text><path d="M483,3051.5464 L493,3051.5464 C508,3051.5464 508,3169.7866 523,3169.7866 L533,3169.7866 " fill="none" style="stroke:#181818;stroke-width:1.0;"/><path d="M353,3110.6665 L363,3110.6665 C378,3110.6665 378,3051.5464 393,3051.5464 L403,3051.5464 " fill="none" style="stroke:#181818;stroke-width:1.0;"/><rect fill="#ADD8E6" height="39.1201" rx="12.5" ry="12.5" style="stroke:#181818;stroke-width:1.5;" width="49" x="403" y="3209.3467"/><text fill="#000000" font-family="sans-serif" font-size="14" lengthAdjust="spacing" textLength="29" x="413" y="3235.3906">O(n)</text><rect fill="#F0F8FF" height="39.1201" rx="12.5" ry="12.5" style="stroke:#181818;stroke-width:1.5;" width="76" x="502" y="3209.3467"/><text fill="#000000" font-family="sans-serif" font-size="14" lengthAdjust="spacing" textLength="56" x="512" y="3235.3906">顺序查找</text><path d="M452,3228.9067 L462,3228.9067 C477,3228.9067 477,3228.9067 492,3228.9067 L502,3228.9067 " fill="none" style="stroke:#181818;stroke-width:1.0;"/><path d="M353,3110.6665 L363,3110.6665 C378,3110.6665 378,3228.9067 393,3228.9067 L403,3228.9067 " fill="none" style="stroke:#181818;stroke-width:1.0;"/><rect fill="#ADD8E6" height="39.1201" rx="12.5" ry="12.5" style="stroke:#181818;stroke-width:1.5;" width="49" x="403" y="3268.4668"/><text fill="#000000" font-family="sans-serif" font-size="14" lengthAdjust="spacing" textLength="29" x="413" y="3294.5107">O(1)</text><rect fill="#F0F8FF" height="39.1201" rx="12.5" ry="12.5" style="stroke:#181818;stroke-width:1.5;" width="76" x="502" y="3268.4668"/><text fill="#000000" font-family="sans-serif" font-size="14" lengthAdjust="spacing" textLength="56" x="512" y="3294.5107">哈希查找</text><path d="M452,3288.0269 L462,3288.0269 C477,3288.0269 477,3288.0269 492,3288.0269 L502,3288.0269 " fill="none" style="stroke:#181818;stroke-width:1.0;"/><path d="M353,3110.6665 L363,3110.6665 C378,3110.6665 378,3288.0269 393,3288.0269 L403,3288.0269 " fill="none" style="stroke:#181818;stroke-width:1.0;"/><path d="M170,1663.7935 L180,1663.7935 C195,1663.7935 195,3110.6665 210,3110.6665 L220,3110.6665 " fill="none" style="stroke:#181818;stroke-width:1.0;"/><path d="M72,1663.7935 L82,1663.7935 C97,1663.7935 97,1663.7935 112,1663.7935 L122,1663.7935 " fill="none" style="stroke:#181818;stroke-width:1.0;"/><!--MD5=[db63b579b699c14416b9926a6e801493]
@startmindmap

+[#OrangeRed] 算法题

++[#yellow] 算法

+++[#Pink] 基本思想

++++[#MediumSpringGreen] 递归 / Recursion
+++++_ 深度优先
+++++_ 判断结束条件

++++[#MediumSpringGreen] 回溯
+++++_ 前置操作
+++++_ 递归（在递归中循环）
+++++_ 后置操作（撤销前置操作）

++++[#MediumSpringGreen] 贪心
+++++_ 及时舍弃，只要第一

++++[#MediumSpringGreen] 分治
++++[#MediumSpringGreen] 双指针 / Two Pointers
++++[#MediumSpringGreen] 快慢指针 / Fast & Slow Pointers

++++[#MediumSpringGreen] 深度优先搜索 / Depth First Search
+++++_ 递归
+++++_ 未知深度

++++[#MediumSpringGreen] 广度优先搜索 / Breath First Search
+++++_ 数组（多维）
+++++_ 多层循环
+++++_ 可能需要队列


++++[#AliceBlue] 位运算
++++[#AliceBlue] 穷举
++++[#AliceBlue] 模拟

++++[#MediumSpringGreen] 动态规划 / Dynamic Programming
+++++[#GhostWhite] 套路
++++++_ 数组 / 二维数组
++++++_ 数组类型一般是整型或者布尔，用来存储长度或状态
+++++[#GhostWhite] 题型
++++++_ 背包问题
++++++_ 最长子序列
++++++_ 计数问题
+++++[#GhostWhite] 分类
++++++_ Recursion
++++++_ Top+Down
++++++_ Bottom+Up

++++[#MediumSpringGreen] 滑动窗口 / Sliding Window
+++++_ 两层循环
+++++_ 右指针遍历滑动，左指针在二层循环（while）中跟随滑动


+++[#Pink] 算法技巧

++++[#AliceBlue] 记忆化搜索
++++[#AliceBlue] 并查集
++++[#AliceBlue] 前缀和
++++[#AliceBlue] 扫描线

++++[#AliceBlue] 多线程
++++[#AliceBlue] 设计模式


+++[#Pink] 模式

++++[#MediumSpringGreen] 合并区间 / Merge Intervals
++++[#AliceBlue] 双堆 / Two Heaps
++++[#AliceBlue] 子集 / Subsets
++++[#MediumSpringGreen] 前 K 个 / K’ Elements / 堆 / PriorityQueue
++++[#AliceBlue] 多路归并 / K-way merge
++++[#AliceBlue] 背包 / Knapsack
++++[#AliceBlue] 子序列
++++[#AliceBlue] 股票
++++[#AliceBlue] 打家劫舍


+++[#Pink] 图算法

++++[#MediumSpringGreen] 最小生成树
++++[#MediumSpringGreen] 最短路径
++++[#AliceBlue] 拓扑排序 / Topological Sort
++++[#AliceBlue] 关键路径
++++[#AliceBlue] 邻接矩阵
++++[#AliceBlue] 邻接表

+++[#Pink] 字符串匹配算法

++++[#MediumSpringGreen] Trie 算法 / 字典树
++++[#AliceBlue] BF 算法 / 暴力匹配
++++[#AliceBlue] BM 算法
++++[#AliceBlue] KMP 算法

+++[#Pink] 排序算法 / Sort

++++[#LightBlue] O(n^2)
+++++[#MediumSpringGreen] 冒泡排序
+++++[#MediumSpringGreen] 选择排序
+++++[#MediumSpringGreen] 插入排序
+++++[#AliceBlue] 希尔排序
++++[#LightBlue] O(n log n)
+++++[#MediumSpringGreen] 归并排序
+++++[#MediumSpringGreen] 堆排序
+++++[#AliceBlue] 快速排序
++++[#LightBlue] O(n + k)
+++++[#AliceBlue] 桶排序
+++++[#AliceBlue] 基数排序
+++++[#AliceBlue] 计数排序

+++[#Pink] 查找算法 / Search

++++[#LightBlue] O(log 2n)
+++++[#MediumSpringGreen] 二分查找 / Binary Search
+++++[#AliceBlue] 二叉查找树
+++++[#MediumSpringGreen] 红黑树
+++++[#AliceBlue] B 树
+++++[#MediumSpringGreen] B+ 树
++++[#LightBlue] O(n)
+++++[#AliceBlue] 顺序查找
++++[#LightBlue] O(1)
+++++[#AliceBlue] 哈希查找


@endmindmap

PlantUML version 1.2022.4(Sat Apr 09 21:29:17 GMT+08:00 2022)
(GPL source distribution)
Java Runtime: OpenJDK Runtime Environment
JVM: OpenJDK 64-Bit Server VM
Default Encoding: GBK
Language: zh
Country: CN
--></g></svg>